<svg version="1.1" viewBox="0.0 0.0 600.0 371.0" fill="none" stroke="none" stroke-linecap="square" stroke-miterlimit="10" width="600" height="371" xmlns:xlink="http://www.w3.org/1999/xlink" xmlns="http://www.w3.org/2000/svg"><path fill="#ffffff" d="M0 0L600.0 0L600.0 371.0L0 371.0L0 0Z" fill-rule="nonzero"/><path fill="#ffffff" d="M0 0L600.0 0L600.0 371.0L0 371.0L0 0Z" fill-rule="nonzero"/><path stroke="#333333" stroke-width="1.0" stroke-linecap="butt" d="M81.5 311.5L581.5 311.5" fill-rule="nonzero"/><path stroke="#cccccc" stroke-width="1.0" stroke-linecap="butt" d="M81.5 249.5L581.5 249.5" fill-rule="nonzero"/><path stroke="#cccccc" stroke-width="1.0" stroke-linecap="butt" d="M81.5 187.5L581.5 187.5" fill-rule="nonzero"/><path stroke="#cccccc" stroke-width="1.0" stroke-linecap="butt" d="M81.5 124.5L581.5 124.5" fill-rule="nonzero"/><path stroke="#cccccc" stroke-width="1.0" stroke-linecap="butt" d="M81.5 62.5L581.5 62.5" fill-rule="nonzero"/><clipPath id="id_0"><path d="M81.55 62.416668L581.45 62.416668L581.45 311.95L81.55 311.95L81.55 62.416668Z" clip-rule="nonzero"/></clipPath><path stroke="#4285f4" stroke-width="2.0" stroke-linecap="butt" clip-path="url(#id_0)" d="M94.0475 82.37933C94.0475 82.37933 110.71083 78.22044 119.0425 74.89333C127.37417 71.56622 135.70583 62.00078 144.0375 62.416668C152.36917 62.832554 160.70084 74.89333 169.0325 77.388664C177.36417 79.884 185.69583 75.72511 194.0275 77.388664C202.35916 79.05222 210.69083 84.04289 219.0225 87.37C227.35417 90.69711 235.68584 95.27189 244.0175 97.35133C252.34917 99.43078 260.68085 99.43078 269.0125 99.846664C277.34418 100.26256 285.67584 99.846664 294.0075 99.846664C302.33917 99.846664 310.67084 99.01489 319.0025 99.846664C327.33417 100.678444 335.66583 97.35133 343.9975 104.83733C352.32916 112.32333 360.66083 132.286 368.9925 144.76266C377.32416 157.23933 385.65582 164.72533 393.9875 179.69733C402.31915 194.66933 410.65085 215.04788 418.9825 234.59467C427.31418 254.14145 435.64584 285.749 443.9775 296.978C452.30917 308.207 460.64084 299.47333 468.9725 301.96866C477.30417 304.464 485.63583 310.28644 493.9675 311.95C502.29916 313.61356 510.63083 311.95 518.9625 311.95C527.2942 311.95 535.62585 311.95 543.9575 311.95C552.2892 311.95 568.9525 311.95 568.9525 311.95" fill-rule="nonzero"/><path fill="#424242" d="M322.35938 348.6844Q322.9375 348.6844 323.375 348.34064Q323.8125 347.98126 323.85938 347.45L324.89062 347.45Q324.85938 347.9969 324.5 348.4969Q324.15625 348.98126 323.57812 349.27814Q323.01562 349.575 322.35938 349.575Q321.0625 349.575 320.29688 348.71564Q319.54688 347.84064 319.54688 346.34064L319.54688 346.15314Q319.54688 345.23126 319.875 344.5125Q320.21875 343.79376 320.84375 343.40314Q321.48438 342.9969 322.35938 342.9969Q323.42188 342.9969 324.125 343.6375Q324.84375 344.2625 324.89062 345.29376L323.85938 345.29376Q323.8125 344.66876 323.39062 344.27814Q322.96875 343.8875 322.35938 343.8875Q321.53125 343.8875 321.07812 344.48126Q320.625 345.075 320.625 346.2L320.625 346.40314Q320.625 347.4969 321.07812 348.09064Q321.53125 348.6844 322.35938 348.6844ZM326.84375 348.5594L330.54688 348.5594L330.54688 349.45L325.51562 349.45L325.51562 348.65314L329.01562 344.0125L325.5625 344.0125L325.5625 343.10626L330.375 343.10626L330.375 343.8719L326.84375 348.5594ZM335.73438 349.45Q335.64062 349.2625 335.57812 348.77814Q334.82812 349.575 333.78125 349.575Q332.84375 349.575 332.23438 349.04376Q331.64062 348.5125 331.64062 347.6844Q331.64062 346.7 332.39062 346.15314Q333.14062 345.60626 334.51562 345.60626L335.5625 345.60626L335.5625 345.10626Q335.5625 344.54376 335.21875 344.21564Q334.89062 343.8719 334.21875 343.8719Q333.64062 343.8719 333.25 344.16876Q332.85938 344.45 332.85938 344.8719L331.76562 344.8719Q331.76562 344.3875 332.09375 343.95Q332.4375 343.5125 333.01562 343.2625Q333.59375 342.9969 334.28125 342.9969Q335.39062 342.9969 336.0 343.54376Q336.625 344.09064 336.65625 345.04376L336.65625 347.96564Q336.65625 348.84064 336.875 349.35626L336.875 349.45L335.73438 349.45ZM333.9375 348.6219Q334.45312 348.6219 334.90625 348.35626Q335.35938 348.09064 335.5625 347.66876L335.5625 346.3719L334.71875 346.3719Q332.71875 346.3719 332.71875 347.54376Q332.71875 348.04376 333.0625 348.34064Q333.40625 348.6219 333.9375 348.6219ZM342.51562 347.7625Q342.51562 347.325 342.17188 347.09064Q341.84375 346.84064 341.01562 346.66876Q340.20312 346.4969 339.71875 346.2469Q339.23438 345.9969 339.0 345.66876Q338.78125 345.325 338.78125 344.85626Q338.78125 344.075 339.4375 343.54376Q340.09375 342.9969 341.125 342.9969Q342.20312 342.9969 342.85938 343.5594Q343.53125 344.10626 343.53125 344.96564L342.45312 344.96564Q342.45312 344.52814 342.0625 344.21564Q341.6875 343.8875 341.125 343.8875Q340.53125 343.8875 340.1875 344.15314Q339.85938 344.40314 339.85938 344.8094Q339.85938 345.2 340.17188 345.40314Q340.48438 345.60626 341.29688 345.79376Q342.10938 345.96564 342.60938 346.21564Q343.10938 346.46564 343.34375 346.825Q343.59375 347.1844 343.59375 347.6844Q343.59375 348.54376 342.90625 349.0594Q342.23438 349.575 341.15625 349.575Q340.39062 349.575 339.79688 349.3094Q339.21875 349.02814 338.89062 348.54376Q338.5625 348.0594 338.5625 347.4969L339.64062 347.4969Q339.67188 348.04376 340.07812 348.3719Q340.48438 348.6844 341.15625 348.6844Q341.76562 348.6844 342.14062 348.4344Q342.51562 348.1844 342.51562 347.7625Z" fill-rule="nonzero"/><path fill="#424242" d="M24.206263 238.33958L25.003138 238.30833Q24.096888 237.57396 24.096888 236.40208Q24.096888 234.38646 26.362513 234.37083L30.550013 234.37083L30.550013 235.46458L26.346888 235.46458Q25.675013 235.46458 25.346888 235.77708Q25.018763 236.07396 25.018763 236.73021Q25.018763 237.26146 25.300013 237.66771Q25.581263 238.05833 26.034388 238.27708L30.550013 238.27708L30.550013 239.35521L24.206263 239.35521L24.206263 238.33958ZM30.550013 228.44896Q30.362513 228.54271 29.878138 228.60521Q30.675013 229.35521 30.675013 230.40208Q30.675013 231.33958 30.143763 231.94896Q29.612513 232.54271 28.784388 232.54271Q27.800013 232.54271 27.253138 231.79271Q26.706263 231.04271 26.706263 229.66771L26.706263 228.62083L26.206263 228.62083Q25.643763 228.62083 25.315638 228.96458Q24.971888 229.29271 24.971888 229.96458Q24.971888 230.54271 25.268763 230.93333Q25.550013 231.32396 25.971888 231.32396L25.971888 232.41771Q25.487513 232.41771 25.050013 232.08958Q24.612513 231.74583 24.362513 231.16771Q24.096888 230.58958 24.096888 229.90208Q24.096888 228.79271 24.643763 228.18333Q25.190638 227.55833 26.143763 227.52708L29.065638 227.52708Q29.940638 227.52708 30.456263 227.30833L30.550013 227.30833L30.550013 228.44896ZM29.721888 230.24583Q29.721888 229.73021 29.456263 229.27708Q29.190638 228.82396 28.768763 228.62083L27.471888 228.62083L27.471888 229.46458Q27.471888 231.46458 28.643763 231.46458Q29.143763 231.46458 29.440638 231.12083Q29.721888 230.77708 29.721888 230.24583ZM22.675013 223.88646L24.206263 223.88646L24.206263 222.71458L25.050013 222.71458L25.050013 223.88646L28.971888 223.88646Q29.362513 223.88646 29.550013 223.73021Q29.737513 223.57396 29.737513 223.19896Q29.737513 223.01146 29.675013 222.68333L30.550013 222.68333Q30.675013 223.10521 30.675013 223.51146Q30.675013 224.23021 30.237513 224.60521Q29.784388 224.98021 28.971888 224.98021L25.050013 224.98021L25.050013 226.13646L24.206263 226.13646L24.206263 224.98021L22.675013 224.98021L22.675013 223.88646ZM29.440638 216.33958Q30.081263 216.76146 30.409388 217.43333L30.409388 217.41771L30.675013 217.76146Q31.206263 218.43333 31.706263 218.43333Q32.128136 218.43333 32.128136 217.96458Q32.128136 217.68333 31.971888 217.38646L32.690636 217.30833Q32.940636 217.71458 32.940636 218.24583Q32.940636 218.76146 32.628136 219.07396Q32.33126 219.37083 31.831263 219.37083Q31.190638 219.37083 30.675013 218.79271Q30.643763 220.07396 29.800013 220.85521Q28.956263 221.63646 27.550013 221.63646L27.362513 221.63646Q26.409388 221.63646 25.675013 221.27708Q24.925013 220.91771 24.518763 220.27708Q24.096888 219.62083 24.096888 218.87083Q24.096888 217.63646 24.909388 216.94896Q25.721888 216.26146 27.237513 216.26146L27.690638 216.26146L27.690638 220.55833Q28.628138 220.52708 29.206263 220.01146Q29.784388 219.48021 29.784388 218.66771Q29.784388 218.10521 29.550013 217.71458Q29.315638 217.30833 28.925013 216.99583L29.440638 216.33958ZM24.987513 218.87083Q24.987513 219.52708 25.471888 219.98021Q25.940638 220.41771 26.800013 220.51146L26.800013 217.33958L26.721888 217.33958Q25.893763 217.38646 25.440638 217.79271Q24.987513 218.18333 24.987513 218.87083ZM29.659388 214.33958L29.659388 210.63646L30.550013 210.63646L30.550013 215.66771L29.753138 215.66771L25.112513 212.16771L25.112513 215.62083L24.206263 215.62083L24.206263 210.80833L24.971888 210.80833L29.659388 214.33958ZM22.534388 213.35521Q22.268763 213.35521 22.096888 213.19896Q21.909388 213.02708 21.909388 212.71458Q21.909388 212.40208 22.096888 212.24583Q22.268763 212.07396 22.534388 212.07396Q22.800013 212.07396 22.987513 212.24583Q23.159388 212.40208 23.159388 212.71458Q23.159388 213.02708 22.987513 213.19896Q22.800013 213.35521 22.534388 213.35521ZM30.675013 206.73021Q30.675013 208.02708 29.831263 208.83958Q28.971888 209.63646 27.550013 209.63646L27.362513 209.63646Q26.409388 209.63646 25.675013 209.27708Q24.925013 208.91771 24.518763 208.27708Q24.096888 207.62083 24.096888 206.87083Q24.096888 205.63646 24.909388 204.94896Q25.721888 204.26146 27.237513 204.26146L27.690638 204.26146L27.690638 208.55833Q28.628138 208.52708 29.206263 208.01146Q29.784388 207.48021 29.784388 206.66771Q29.784388 206.10521 29.550013 205.71458Q29.315638 205.30833 28.925013 204.99583L29.440638 204.33958Q30.675013 205.13646 30.675013 206.73021ZM24.987513 206.87083Q24.987513 207.52708 25.471888 207.98021Q25.940638 208.41771 26.800013 208.51146L26.800013 205.33958L26.721888 205.33958Q25.893763 205.38646 25.440638 205.79271Q24.987513 206.18333 24.987513 206.87083ZM24.206263 202.33958L25.003138 202.30833Q24.096888 201.57396 24.096888 200.40208Q24.096888 198.38646 26.362513 198.37083L30.550013 198.37083L30.550013 199.46458L26.346888 199.46458Q25.675013 199.46458 25.346888 199.77708Q25.018763 200.07396 25.018763 200.73021Q25.018763 201.26146 25.300013 201.66771Q25.581263 202.05833 26.034388 202.27708L30.550013 202.27708L30.550013 203.35521L24.206263 203.35521L24.206263 202.33958ZM30.550013 195.18333L30.550013 196.26146L24.206263 196.26146L24.206263 195.18333L30.550013 195.18333ZM22.534388 196.35521Q22.268763 196.35521 22.081263 196.19896Q21.893763 196.02708 21.893763 195.71458Q21.893763 195.40208 22.081263 195.24583Q22.268763 195.07396 22.534388 195.07396Q22.784388 195.07396 22.971888 195.24583Q23.143763 195.40208 23.143763 195.71458Q23.143763 196.02708 22.971888 196.19896Q22.784388 196.35521 22.534388 196.35521ZM30.675013 190.73021Q30.675013 192.02708 29.831263 192.83958Q28.971888 193.63646 27.550013 193.63646L27.362513 193.63646Q26.409388 193.63646 25.675013 193.27708Q24.925013 192.91771 24.518763 192.27708Q24.096888 191.62083 24.096888 190.87083Q24.096888 189.63646 24.909388 188.94896Q25.721888 188.26146 27.237513 188.26146L27.690638 188.26146L27.690638 192.55833Q28.628138 192.52708 29.206263 192.01146Q29.784388 191.48021 29.784388 190.66771Q29.784388 190.10521 29.550013 189.71458Q29.315638 189.30833 28.925013 188.99583L29.440638 188.33958Q30.675013 189.13646 30.675013 190.73021ZM24.987513 190.87083Q24.987513 191.52708 25.471888 191.98021Q25.940638 192.41771 26.800013 192.51146L26.800013 189.33958L26.721888 189.33958Q25.893763 189.38646 25.440638 189.79271Q24.987513 190.18333 24.987513 190.87083ZM27.315638 184.65208Q26.393763 184.65208 25.643763 184.29271Q24.893763 183.91771 24.503138 183.26146Q24.096888 182.60521 24.096888 181.77708Q24.096888 180.48021 24.987513 179.68333Q25.878138 178.87083 27.378138 178.87083L27.456263 178.87083Q28.378138 178.87083 29.112513 179.23021Q29.846888 179.58958 30.268763 180.24583Q30.675013 180.90208 30.675013 181.76146Q30.675013 183.04271 29.784388 183.85521Q28.878138 184.65208 27.393763 184.65208L27.315638 184.65208ZM27.456263 183.55833Q28.503138 183.55833 29.143763 183.07396Q29.784388 182.57396 29.784388 181.76146Q29.784388 180.93333 29.143763 180.44896Q28.487513 179.96458 27.315638 179.96458Q26.284388 179.96458 25.643763 180.46458Q24.987513 180.94896 24.987513 181.77708Q24.987513 182.57396 25.628138 183.07396Q26.253138 183.55833 27.456263 183.55833ZM27.612513 175.58958L28.315638 176.27708L30.550013 176.27708L30.550013 177.35521L21.550013 177.35521L21.550013 176.27708L26.987513 176.27708L26.300013 175.69896L24.206263 173.71458L24.206263 172.40208L26.862513 174.87083L30.550013 172.10521L30.550013 173.38646L27.612513 175.58958ZM30.550013 170.18333L30.550013 171.26146L21.550013 171.26146L21.550013 170.18333L30.550013 170.18333ZM30.550013 164.44896Q30.362513 164.54271 29.878138 164.60521Q30.675013 165.35521 30.675013 166.40208Q30.675013 167.33958 30.143763 167.94896Q29.612513 168.54271 28.784388 168.54271Q27.800013 168.54271 27.253138 167.79271Q26.706263 167.04271 26.706263 165.66771L26.706263 164.62083L26.206263 164.62083Q25.643763 164.62083 25.315638 164.96458Q24.971888 165.29271 24.971888 165.96458Q24.971888 166.54271 25.268763 166.93333Q25.550013 167.32396 25.971888 167.32396L25.971888 168.41771Q25.487513 168.41771 25.050013 168.08958Q24.612513 167.74583 24.362513 167.16771Q24.096888 166.58958 24.096888 165.90208Q24.096888 164.79271 24.643763 164.18333Q25.190638 163.55833 26.143763 163.52708L29.065638 163.52708Q29.940638 163.52708 30.456263 163.30833L30.550013 163.30833L30.550013 164.44896ZM29.721888 166.24583Q29.721888 165.73021 29.456263 165.27708Q29.190638 164.82396 28.768763 164.62083L27.471888 164.62083L27.471888 165.46458Q27.471888 167.46458 28.643763 167.46458Q29.143763 167.46458 29.440638 167.12083Q29.721888 166.77708 29.721888 166.24583ZM28.862513 157.66771Q28.425013 157.66771 28.190638 158.01146Q27.940638 158.33958 27.768763 159.16771Q27.596888 159.98021 27.346888 160.46458Q27.096888 160.94896 26.768763 161.18333Q26.425013 161.40208 25.956263 161.40208Q25.175013 161.40208 24.643763 160.74583Q24.096888 160.08958 24.096888 159.05833Q24.096888 157.98021 24.659388 157.32396Q25.206263 156.65208 26.065638 156.65208L26.065638 157.73021Q25.628138 157.73021 25.315638 158.12083Q24.987513 158.49583 24.987513 159.05833Q24.987513 159.65208 25.253138 159.99583Q25.503138 160.32396 25.909388 160.32396Q26.300013 160.32396 26.503138 160.01146Q26.706263 159.69896 26.893763 158.88646Q27.065638 158.07396 27.315638 157.57396Q27.565638 157.07396 27.925013 156.83958Q28.284388 156.58958 28.784388 156.58958Q29.643763 156.58958 30.159388 157.27708Q30.675013 157.94896 30.675013 159.02708Q30.675013 159.79271 30.409388 160.38646Q30.128138 160.96458 29.643763 161.29271Q29.159388 161.62083 28.596888 161.62083L28.596888 160.54271Q29.143763 160.51146 29.471888 160.10521Q29.784388 159.69896 29.784388 159.02708Q29.784388 158.41771 29.534388 158.04271Q29.284388 157.66771 28.862513 157.66771ZM27.612513 153.58958L28.315638 154.27708L30.550013 154.27708L30.550013 155.35521L21.550013 155.35521L21.550013 154.27708L26.987513 154.27708L26.300013 153.69896L24.206263 151.71458L24.206263 150.40208L26.862513 152.87083L30.550013 150.10521L30.550013 151.38646L27.612513 153.58958ZM27.315638 149.65208Q26.393763 149.65208 25.643763 149.29271Q24.893763 148.91771 24.503138 148.26146Q24.096888 147.60521 24.096888 146.77708Q24.096888 145.48021 24.987513 144.68333Q25.878138 143.87083 27.378138 143.87083L27.456263 143.87083Q28.378138 143.87083 29.112513 144.23021Q29.846888 144.58958 30.268763 145.24583Q30.675013 145.90208 30.675013 146.76146Q30.675013 148.04271 29.784388 148.85521Q28.878138 149.65208 27.393763 149.65208L27.315638 149.65208ZM27.456263 148.55833Q28.503138 148.55833 29.143763 148.07396Q29.784388 147.57396 29.784388 146.76146Q29.784388 145.93333 29.143763 145.44896Q28.487513 144.96458 27.315638 144.96458Q26.284388 144.96458 25.643763 145.46458Q24.987513 145.94896 24.987513 146.77708Q24.987513 147.57396 25.628138 148.07396Q26.253138 148.55833 27.456263 148.55833ZM21.550013 146.32396L21.550013 145.01146L23.268763 146.58958L23.268763 147.46458L21.550013 146.32396ZM29.050013 136.74583L24.206263 135.52708L24.206263 134.44896L30.550013 136.29271L30.550013 137.16771L25.737513 138.71458L30.550013 140.21458L30.550013 141.08958L24.206263 142.93333L24.206263 141.85521L28.956263 140.60521L24.206263 139.12083L24.206263 138.26146L29.050013 136.74583Z" fill-rule="nonzero"/><path fill="#757575" d="M57.6125 312.8094Q57.6125 314.71564 56.95625 315.65314Q56.315624 316.575 54.925 316.575Q53.565624 316.575 52.909374 315.66876Q52.253124 314.7625 52.221874 312.95L52.221874 311.5125Q52.221874 309.6219 52.8625 308.71564Q53.51875 307.79376 54.909374 307.79376Q56.284374 307.79376 56.940624 308.6844Q57.596874 309.5594 57.6125 311.40314L57.6125 312.8094ZM56.51875 311.325Q56.51875 309.95 56.128124 309.325Q55.753124 308.6844 54.909374 308.6844Q54.08125 308.6844 53.690624 309.325Q53.315624 309.95 53.315624 311.2469L53.315624 312.98126Q53.315624 314.35626 53.70625 315.02814Q54.1125 315.6844 54.925 315.6844Q55.721874 315.6844 56.1125 315.0594Q56.503124 314.4344 56.51875 313.10626L56.51875 311.325ZM59.39375 315.8875Q59.39375 315.60626 59.55 315.41876Q59.721874 315.23126 60.05 315.23126Q60.39375 315.23126 60.565624 315.41876Q60.7375 315.60626 60.7375 315.8875Q60.7375 316.15314 60.565624 316.34064Q60.39375 316.5125 60.05 316.5125Q59.721874 316.5125 59.55 316.34064Q59.39375 316.15314 59.39375 315.8875ZM67.6125 312.8094Q67.6125 314.71564 66.95625 315.65314Q66.31563 316.575 64.925 316.575Q63.565624 316.575 62.909374 315.66876Q62.253124 314.7625 62.221874 312.95L62.221874 311.5125Q62.221874 309.6219 62.8625 308.71564Q63.51875 307.79376 64.90938 307.79376Q66.28438 307.79376 66.94063 308.6844Q67.59688 309.5594 67.6125 311.40314L67.6125 312.8094ZM66.51875 311.325Q66.51875 309.95 66.12813 309.325Q65.75313 308.6844 64.90938 308.6844Q64.08125 308.6844 63.690624 309.325Q63.315624 309.95 63.315624 311.2469L63.315624 312.98126Q63.315624 314.35626 63.70625 315.02814Q64.1125 315.6844 64.925 315.6844Q65.72188 315.6844 66.1125 315.0594Q66.50313 314.4344 66.51875 313.10626L66.51875 311.325ZM74.6125 312.8094Q74.6125 314.71564 73.95625 315.65314Q73.31563 316.575 71.925 316.575Q70.56563 316.575 69.90938 315.66876Q69.25313 314.7625 69.22188 312.95L69.22188 311.5125Q69.22188 309.6219 69.8625 308.71564Q70.51875 307.79376 71.90938 307.79376Q73.28438 307.79376 73.94063 308.6844Q74.59688 309.5594 74.6125 311.40314L74.6125 312.8094ZM73.51875 311.325Q73.51875 309.95 73.12813 309.325Q72.75313 308.6844 71.90938 308.6844Q71.08125 308.6844 70.69063 309.325Q70.31563 309.95 70.31563 311.2469L70.31563 312.98126Q70.31563 314.35626 70.70625 315.02814Q71.1125 315.6844 71.925 315.6844Q72.72188 315.6844 73.1125 315.0594Q73.50313 314.4344 73.51875 313.10626L73.51875 311.325Z" fill-rule="nonzero"/><path fill="#757575" d="M57.6125 250.42604Q57.6125 252.33229 56.95625 253.26979Q56.315624 254.19167 54.925 254.19167Q53.565624 254.19167 52.909374 253.28542Q52.253124 252.37917 52.221874 250.56667L52.221874 249.12917Q52.221874 247.23854 52.8625 246.33229Q53.51875 245.41042 54.909374 245.41042Q56.284374 245.41042 56.940624 246.30104Q57.596874 247.17604 57.6125 249.01979L57.6125 250.42604ZM56.51875 248.94167Q56.51875 247.56667 56.128124 246.94167Q55.753124 246.30104 54.909374 246.30104Q54.08125 246.30104 53.690624 246.94167Q53.315624 247.56667 53.315624 248.86354L53.315624 250.59792Q53.315624 251.97292 53.70625 252.64479Q54.1125 253.30104 54.925 253.30104Q55.721874 253.30104 56.1125 252.67604Q56.503124 252.05104 56.51875 250.72292L56.51875 248.94167ZM59.39375 253.50417Q59.39375 253.22292 59.55 253.03542Q59.721874 252.84792 60.05 252.84792Q60.39375 252.84792 60.565624 253.03542Q60.7375 253.22292 60.7375 253.50417Q60.7375 253.76979 60.565624 253.95729Q60.39375 254.12917 60.05 254.12917Q59.721874 254.12917 59.55 253.95729Q59.39375 253.76979 59.39375 253.50417ZM67.84688 254.06667L62.253124 254.06667L62.253124 253.28542L65.20625 250.00417Q65.8625 249.25417 66.1125 248.80104Q66.3625 248.33229 66.3625 247.83229Q66.3625 247.16042 65.95625 246.73854Q65.56563 246.30104 64.87813 246.30104Q64.08125 246.30104 63.628124 246.76979Q63.175 247.22292 63.175 248.05104L62.096874 248.05104Q62.096874 246.86354 62.846874 246.14479Q63.6125 245.41042 64.87813 245.41042Q66.08125 245.41042 66.76875 246.03542Q67.45625 246.66042 67.45625 247.70729Q67.45625 248.95729 65.84688 250.70729L63.565624 253.17604L67.84688 253.17604L67.84688 254.06667ZM69.75313 249.78542L70.19063 245.53542L74.56563 245.53542L74.56563 246.53542L71.1125 246.53542L70.84688 248.86354Q71.4875 248.48854 72.28438 248.48854Q73.44063 248.48854 74.12813 249.26979Q74.81563 250.03542 74.81563 251.34792Q74.81563 252.66042 74.09688 253.42604Q73.39375 254.19167 72.1125 254.19167Q70.9875 254.19167 70.26875 253.56667Q69.55 252.92604 69.45625 251.81667L70.47188 251.81667Q70.58125 252.55104 71.00313 252.92604Q71.425 253.30104 72.1125 253.30104Q72.8625 253.30104 73.3 252.78542Q73.7375 252.26979 73.7375 251.36354Q73.7375 250.50417 73.26875 249.98854Q72.8 249.47292 72.01875 249.47292Q71.31563 249.47292 70.90938 249.76979L70.62813 250.00417L69.75313 249.78542Z" fill-rule="nonzero"/><path fill="#757575" d="M57.6125 188.04271Q57.6125 189.94896 56.95625 190.88646Q56.315624 191.80833 54.925 191.80833Q53.565624 191.80833 52.909374 190.90208Q52.253124 189.99583 52.221874 188.18333L52.221874 186.74583Q52.221874 184.85521 52.8625 183.94896Q53.51875 183.02708 54.909374 183.02708Q56.284374 183.02708 56.940624 183.91771Q57.596874 184.79271 57.6125 186.63646L57.6125 188.04271ZM56.51875 186.55833Q56.51875 185.18333 56.128124 184.55833Q55.753124 183.91771 54.909374 183.91771Q54.08125 183.91771 53.690624 184.55833Q53.315624 185.18333 53.315624 186.48021L53.315624 188.21458Q53.315624 189.58958 53.70625 190.26146Q54.1125 190.91771 54.925 190.91771Q55.721874 190.91771 56.1125 190.29271Q56.503124 189.66771 56.51875 188.33958L56.51875 186.55833ZM59.39375 191.12083Q59.39375 190.83958 59.55 190.65208Q59.721874 190.46458 60.05 190.46458Q60.39375 190.46458 60.565624 190.65208Q60.7375 190.83958 60.7375 191.12083Q60.7375 191.38646 60.565624 191.57396Q60.39375 191.74583 60.05 191.74583Q59.721874 191.74583 59.55 191.57396Q59.39375 191.38646 59.39375 191.12083ZM62.753124 187.40208L63.190624 183.15208L67.56563 183.15208L67.56563 184.15208L64.1125 184.15208L63.846874 186.48021Q64.4875 186.10521 65.28438 186.10521Q66.44063 186.10521 67.12813 186.88646Q67.81563 187.65208 67.81563 188.96458Q67.81563 190.27708 67.09688 191.04271Q66.39375 191.80833 65.1125 191.80833Q63.9875 191.80833 63.26875 191.18333Q62.55 190.54271 62.45625 189.43333L63.471874 189.43333Q63.58125 190.16771 64.00313 190.54271Q64.425 190.91771 65.1125 190.91771Q65.8625 190.91771 66.3 190.40208Q66.7375 189.88646 66.7375 188.98021Q66.7375 188.12083 66.26875 187.60521Q65.8 187.08958 65.01875 187.08958Q64.31563 187.08958 63.909374 187.38646L63.628124 187.62083L62.753124 187.40208ZM74.6125 188.04271Q74.6125 189.94896 73.95625 190.88646Q73.31563 191.80833 71.925 191.80833Q70.56563 191.80833 69.90938 190.90208Q69.25313 189.99583 69.22188 188.18333L69.22188 186.74583Q69.22188 184.85521 69.8625 183.94896Q70.51875 183.02708 71.90938 183.02708Q73.28438 183.02708 73.94063 183.91771Q74.59688 184.79271 74.6125 186.63646L74.6125 188.04271ZM73.51875 186.55833Q73.51875 185.18333 73.12813 184.55833Q72.75313 183.91771 71.90938 183.91771Q71.08125 183.91771 70.69063 184.55833Q70.31563 185.18333 70.31563 186.48021L70.31563 188.21458Q70.31563 189.58958 70.70625 190.26146Q71.1125 190.91771 71.925 190.91771Q72.72188 190.91771 73.1125 190.29271Q73.50313 189.66771 73.51875 188.33958L73.51875 186.55833Z" fill-rule="nonzero"/><path fill="#757575" d="M57.6125 125.65938Q57.6125 127.56563 56.95625 128.50313Q56.315624 129.425 54.925 129.425Q53.565624 129.425 52.909374 128.51875Q52.253124 127.6125 52.221874 125.8L52.221874 124.3625Q52.221874 122.47188 52.8625 121.56563Q53.51875 120.64375 54.909374 120.64375Q56.284374 120.64375 56.940624 121.53438Q57.596874 122.40938 57.6125 124.25313L57.6125 125.65938ZM56.51875 124.175Q56.51875 122.8 56.128124 122.175Q55.753124 121.53438 54.909374 121.53438Q54.08125 121.53438 53.690624 122.175Q53.315624 122.8 53.315624 124.09688L53.315624 125.83125Q53.315624 127.20625 53.70625 127.87813Q54.1125 128.53438 54.925 128.53438Q55.721874 128.53438 56.1125 127.90938Q56.503124 127.28438 56.51875 125.95625L56.51875 124.175ZM59.39375 128.7375Q59.39375 128.45625 59.55 128.26875Q59.721874 128.08125 60.05 128.08125Q60.39375 128.08125 60.565624 128.26875Q60.7375 128.45625 60.7375 128.7375Q60.7375 129.00313 60.565624 129.19063Q60.39375 129.3625 60.05 129.3625Q59.721874 129.3625 59.55 129.19063Q59.39375 129.00313 59.39375 128.7375ZM67.76875 121.37813L64.2375 129.3L63.096874 129.3L66.6125 121.65938L62.003124 121.65938L62.003124 120.76875L67.76875 120.76875L67.76875 121.37813ZM69.75313 125.01875L70.19063 120.76875L74.56563 120.76875L74.56563 121.76875L71.1125 121.76875L70.84688 124.09688Q71.4875 123.72188 72.28438 123.72188Q73.44063 123.72188 74.12813 124.50313Q74.81563 125.26875 74.81563 126.58125Q74.81563 127.89375 74.09688 128.65938Q73.39375 129.425 72.1125 129.425Q70.9875 129.425 70.26875 128.8Q69.55 128.15938 69.45625 127.05L70.47188 127.05Q70.58125 127.78438 71.00313 128.15938Q71.425 128.53438 72.1125 128.53438Q72.8625 128.53438 73.3 128.01875Q73.7375 127.50313 73.7375 126.59688Q73.7375 125.7375 73.26875 125.22188Q72.8 124.70625 72.01875 124.70625Q71.31563 124.70625 70.90938 125.00313L70.62813 125.2375L69.75313 125.01875Z" fill-rule="nonzero"/><path fill="#757575" d="M55.815624 66.916664L54.7375 66.916664L54.7375 59.697914L52.55 60.49479L52.55 59.510414L55.659374 58.33854L55.815624 58.33854L55.815624 66.916664ZM59.39375 66.354164Q59.39375 66.072914 59.55 65.885414Q59.721874 65.697914 60.05 65.697914Q60.39375 65.697914 60.565624 65.885414Q60.7375 66.072914 60.7375 66.354164Q60.7375 66.61979 60.565624 66.80729Q60.39375 66.979164 60.05 66.979164Q59.721874 66.979164 59.55 66.80729Q59.39375 66.61979 59.39375 66.354164ZM67.6125 63.27604Q67.6125 65.18229 66.95625 66.11979Q66.31563 67.041664 64.925 67.041664Q63.565624 67.041664 62.909374 66.135414Q62.253124 65.229164 62.221874 63.416664L62.221874 61.979164Q62.221874 60.08854 62.8625 59.18229Q63.51875 58.260414 64.90938 58.260414Q66.28438 58.260414 66.94063 59.15104Q67.59688 60.02604 67.6125 61.86979L67.6125 63.27604ZM66.51875 61.791664Q66.51875 60.416664 66.12813 59.791664Q65.75313 59.15104 64.90938 59.15104Q64.08125 59.15104 63.690624 59.791664Q63.315624 60.416664 63.315624 61.71354L63.315624 63.447914Q63.315624 64.822914 63.70625 65.49479Q64.1125 66.15104 64.925 66.15104Q65.72188 66.15104 66.1125 65.52604Q66.50313 64.90104 66.51875 63.572914L66.51875 61.791664ZM74.6125 63.27604Q74.6125 65.18229 73.95625 66.11979Q73.31563 67.041664 71.925 67.041664Q70.56563 67.041664 69.90938 66.135414Q69.25313 65.229164 69.22188 63.416664L69.22188 61.979164Q69.22188 60.08854 69.8625 59.18229Q70.51875 58.260414 71.90938 58.260414Q73.28438 58.260414 73.94063 59.15104Q74.59688 60.02604 74.6125 61.86979L74.6125 63.27604ZM73.51875 61.791664Q73.51875 60.416664 73.12813 59.791664Q72.75313 59.15104 71.90938 59.15104Q71.08125 59.15104 70.69063 59.791664Q70.31563 60.416664 70.31563 61.71354L70.31563 63.447914Q70.31563 64.822914 70.70625 65.49479Q71.1125 66.15104 71.925 66.15104Q72.72188 66.15104 73.1125 65.52604Q73.50313 64.90104 73.51875 63.572914L73.51875 61.791664Z" fill-rule="nonzero"/><path fill="#757575" d="M24.159374 36.26875Q25.128124 36.26875 25.846874 35.690624Q26.565624 35.096874 26.64375 34.221874L28.3625 34.221874Q28.3 35.128124 27.721874 35.95625Q27.159374 36.76875 26.190624 37.26875Q25.2375 37.753124 24.159374 37.753124Q22.003124 37.753124 20.721874 36.315624Q19.45625 34.8625 19.45625 32.3625L19.45625 32.065624Q19.45625 30.51875 20.01875 29.315624Q20.58125 28.1125 21.64375 27.45625Q22.70625 26.784374 24.14375 26.784374Q25.925 26.784374 27.096874 27.846874Q28.284374 28.909374 28.3625 30.6125L26.64375 30.6125Q26.565624 29.596874 25.8625 28.940624Q25.175 28.26875 24.14375 28.26875Q22.76875 28.26875 22.003124 29.26875Q21.253124 30.253124 21.253124 32.128124L21.253124 32.471874Q21.253124 34.3 22.003124 35.284374Q22.753124 36.26875 24.159374 36.26875ZM31.721874 28.26875Q32.925 26.784374 34.846874 26.784374Q38.20625 26.784374 38.221874 30.565624L38.221874 37.55L36.425 37.55L36.425 30.55Q36.409374 29.409374 35.89375 28.8625Q35.39375 28.315624 34.3 28.315624Q33.425 28.315624 32.753124 28.784374Q32.096874 29.253124 31.721874 30.01875L31.721874 37.55L29.925 37.55L29.925 22.55L31.721874 22.55L31.721874 28.26875ZM40.440624 32.175Q40.440624 30.6125 41.05 29.378124Q41.659374 28.128124 42.7375 27.45625Q43.83125 26.784374 45.2375 26.784374Q47.39375 26.784374 48.721874 28.284374Q50.065624 29.76875 50.065624 32.253124L50.065624 32.378124Q50.065624 33.925 49.471874 35.159374Q48.878124 36.378124 47.76875 37.065624Q46.675 37.753124 45.253124 37.753124Q43.1125 37.753124 41.76875 36.253124Q40.440624 34.753124 40.440624 32.3L40.440624 32.175ZM42.253124 32.378124Q42.253124 34.14375 43.065624 35.20625Q43.89375 36.26875 45.253124 36.26875Q46.628124 36.26875 47.440624 35.190624Q48.253124 34.1125 48.253124 32.175Q48.253124 30.425 47.425 29.346874Q46.596874 28.26875 45.2375 28.26875Q43.89375 28.26875 43.065624 29.33125Q42.253124 30.39375 42.253124 32.378124ZM57.01875 28.596874Q56.6125 28.534374 56.14375 28.534374Q54.3625 28.534374 53.721874 30.05L53.721874 37.55L51.925 37.55L51.925 26.9875L53.675 26.9875L53.70625 28.20625Q54.596874 26.784374 56.221874 26.784374Q56.753124 26.784374 57.01875 26.925L57.01875 28.596874ZM60.6125 36.08125L66.8 36.08125L66.8 37.55L58.409374 37.55L58.409374 36.221874L64.2375 28.471874L58.503124 28.471874L58.503124 26.9875L66.50313 26.9875L66.50313 28.26875L60.6125 36.08125ZM68.44063 32.175Q68.44063 30.6125 69.05 29.378124Q69.65938 28.128124 70.7375 27.45625Q71.83125 26.784374 73.2375 26.784374Q75.39375 26.784374 76.72188 28.284374Q78.06563 29.76875 78.06563 32.253124L78.06563 32.378124Q78.06563 33.925 77.47188 35.159374Q76.87813 36.378124 75.76875 37.065624Q74.675 37.753124 73.25313 37.753124Q71.1125 37.753124 69.76875 36.253124Q68.44063 34.753124 68.44063 32.3L68.44063 32.175ZM70.25313 32.378124Q70.25313 34.14375 71.06563 35.20625Q71.89375 36.26875 73.25313 36.26875Q74.62813 36.26875 75.44063 35.190624Q76.25313 34.1125 76.25313 32.175Q76.25313 30.425 75.425 29.346874Q74.59688 28.26875 73.2375 28.26875Q71.89375 28.26875 71.06563 29.33125Q70.25313 30.39375 70.25313 32.378124ZM73.64375 22.55L75.83125 22.55L73.20625 25.425L71.75313 25.425L73.64375 22.55ZM89.26875 35.065624L91.3 26.9875L93.1125 26.9875L90.03438 37.55L88.56563 37.55L86.00313 29.534374L83.50313 37.55L82.03438 37.55L78.97188 26.9875L80.76875 26.9875L82.84688 34.89375L85.31563 26.9875L86.76875 26.9875L89.26875 35.065624ZM105.675 37.55L103.84688 37.55L103.84688 25.503124L100.20625 26.846874L100.20625 25.20625L105.39375 23.26875L105.675 23.26875L105.675 37.55ZM119.64375 31.4875Q119.64375 34.659374 118.56563 36.20625Q117.4875 37.753124 115.175 37.753124Q112.89375 37.753124 111.8 36.2375Q110.70625 34.721874 110.675 31.721874L110.675 29.315624Q110.675 26.175 111.75313 24.659374Q112.84688 23.128124 115.15938 23.128124Q117.45625 23.128124 118.53438 24.6125Q119.6125 26.08125 119.64375 29.14375L119.64375 31.4875ZM117.84688 29.01875Q117.84688 26.721874 117.19063 25.675Q116.55 24.6125 115.15938 24.6125Q113.76875 24.6125 113.12813 25.659374Q112.50313 26.70625 112.4875 28.878124L112.4875 31.76875Q112.4875 34.065624 113.14375 35.175Q113.81563 36.26875 115.175 36.26875Q116.51875 36.26875 117.15938 35.2375Q117.81563 34.20625 117.84688 31.971874L117.84688 29.01875Z" fill-rule="nonzero"/></svg>