<svg version="1.1" viewBox="0.0 0.0 600.0 371.0" fill="none" stroke="none" stroke-linecap="square" stroke-miterlimit="10" width="600" height="371" xmlns:xlink="http://www.w3.org/1999/xlink" xmlns="http://www.w3.org/2000/svg"><path fill="#ffffff" d="M0 0L600.0 0L600.0 371.0L0 371.0L0 0Z" fill-rule="nonzero"/><path fill="#ffffff" d="M0 0L600.0 0L600.0 371.0L0 371.0L0 0Z" fill-rule="nonzero"/><path stroke="#cccccc" stroke-width="1.0" stroke-linecap="butt" d="M187.5 62.5L187.5 298.5" fill-rule="nonzero"/><path stroke="#cccccc" stroke-width="1.0" stroke-linecap="butt" d="M318.5 62.5L318.5 298.5" fill-rule="nonzero"/><path stroke="#cccccc" stroke-width="1.0" stroke-linecap="butt" d="M450.5 62.5L450.5 298.5" fill-rule="nonzero"/><path stroke="#cccccc" stroke-width="1.0" stroke-linecap="butt" d="M581.5 62.5L581.5 298.5" fill-rule="nonzero"/><path stroke="#333333" stroke-width="1.0" stroke-linecap="butt" d="M95.5 298.5L581.5 298.5" fill-rule="nonzero"/><path stroke="#cccccc" stroke-width="1.0" stroke-linecap="butt" d="M95.5 239.5L581.5 239.5" fill-rule="nonzero"/><path stroke="#cccccc" stroke-width="1.0" stroke-linecap="butt" d="M95.5 180.5L581.5 180.5" fill-rule="nonzero"/><path stroke="#cccccc" stroke-width="1.0" stroke-linecap="butt" d="M95.5 121.5L581.5 121.5" fill-rule="nonzero"/><path stroke="#cccccc" stroke-width="1.0" stroke-linecap="butt" d="M95.5 62.5L581.5 62.5" fill-rule="nonzero"/><clipPath id="id_0"><path d="M95.55 62.416668L581.45 62.416668L581.45 298.45L95.55 298.45L95.55 62.416668Z" clip-rule="nonzero"/></clipPath><path stroke="#4285f4" stroke-width="2.0" stroke-linecap="butt" clip-path="url(#id_0)" d="M95.55 62.416668C95.55 62.416668 104.304955 62.416668 108.682434 62.416668C113.05991 62.416668 117.437386 62.416668 121.814865 62.416668C126.192345 62.416668 130.56982 62.416668 134.9473 62.416668C139.32477 62.416668 143.70226 62.41588 148.07973 62.416668C152.45721 62.417454 156.83469 62.417847 161.21216 62.421387C165.58965 62.424927 169.96712 62.427288 174.34459 62.43791C178.72208 62.448532 183.09955 62.459938 187.47702 62.485115C191.8545 62.510292 196.23198 62.538223 200.60947 62.58897C204.98694 62.639717 209.36441 62.7003 213.7419 62.7896C218.11937 62.8789 222.49684 62.980785 226.87433 63.124767C231.2518 63.268745 235.62927 63.43515 240.00676 63.65348C244.38423 63.87181 248.76172 64.10588 253.13919 64.43475C257.51666 64.763626 261.89413 65.16331 266.2716 65.62672C270.6491 66.09013 275.02658 66.555115 279.40405 67.215225C283.78152 67.87533 288.159 68.67234 292.5365 69.58736C296.91397 70.50238 301.29144 71.43353 305.6689 72.70536C310.0464 73.97719 314.42386 75.35011 318.80136 77.218315C323.17883 79.08652 327.5563 81.15221 331.93378 83.91458C336.31125 86.676956 340.68875 88.50936 345.06622 93.79258C349.4437 99.07579 353.82117 100.27681 358.19864 115.61386C362.57614 130.95091 366.9536 163.29967 371.3311 185.8149C375.70856 208.33011 380.08603 237.1132 384.4635 250.70518C388.841 264.29715 393.21848 262.95688 397.59595 267.36676C401.97342 271.77667 406.3509 275.0642 410.7284 277.16452C415.10587 279.26483 419.48334 279.20068 423.8608 279.9686C428.23828 280.73648 432.61575 281.0693 436.99326 281.77188C441.37073 282.4745 445.7482 283.48392 450.12567 284.18414C454.50314 284.88437 458.88065 285.57516 463.25812 285.97327C467.6356 286.3714 472.01306 286.33243 476.39053 286.5728C480.768 286.81317 485.1455 287.24234 489.52298 287.41544C493.90045 287.58853 498.27792 287.43945 502.6554 287.61136C507.0329 287.78326 511.41037 288.192 515.78784 288.4469C520.16534 288.7018 524.5428 288.98035 528.9203 289.14084C533.2977 289.30136 537.67523 289.38712 542.0527 289.4099C546.4302 289.43274 550.8077 289.15973 555.1851 289.27774C559.5626 289.39575 563.94006 289.93942 568.31757 290.118C572.69507 290.29663 581.45 290.34933 581.45 290.34933" fill-rule="nonzero"/><path fill="#424242" d="M307.29688 341.575L307.29688 343.10626L308.46875 343.10626L308.46875 343.95L307.29688 343.95L307.29688 347.8719Q307.29688 348.2625 307.45312 348.45Q307.60938 348.6375 307.98438 348.6375Q308.17188 348.6375 308.5 348.575L308.5 349.45Q308.07812 349.575 307.67188 349.575Q306.95312 349.575 306.57812 349.1375Q306.20312 348.6844 306.20312 347.8719L306.20312 343.95L305.04688 343.95L305.04688 343.10626L306.20312 343.10626L306.20312 341.575L307.29688 341.575ZM312.45312 349.575Q311.15625 349.575 310.34375 348.73126Q309.54688 347.8719 309.54688 346.45L309.54688 346.2625Q309.54688 345.3094 309.90625 344.575Q310.26562 343.825 310.90625 343.41876Q311.5625 342.9969 312.3125 342.9969Q313.54688 342.9969 314.23438 343.8094Q314.92188 344.6219 314.92188 346.1375L314.92188 346.59064L310.625 346.59064Q310.65625 347.52814 311.17188 348.10626Q311.70312 348.6844 312.51562 348.6844Q313.07812 348.6844 313.46875 348.45Q313.875 348.21564 314.1875 347.825L314.84375 348.34064Q314.04688 349.575 312.45312 349.575ZM312.3125 343.8875Q311.65625 343.8875 311.20312 344.3719Q310.76562 344.84064 310.67188 345.7L313.84375 345.7L313.84375 345.6219Q313.79688 344.79376 313.39062 344.34064Q313.0 343.8875 312.3125 343.8875ZM316.84375 343.10626L316.875 343.8094Q317.5625 342.9969 318.75 342.9969Q320.07812 342.9969 320.5625 344.0125Q320.875 343.5594 321.375 343.27814Q321.89062 342.9969 322.57812 342.9969Q324.67188 342.9969 324.70312 345.2L324.70312 349.45L323.625 349.45L323.625 345.2625Q323.625 344.59064 323.3125 344.2625Q323.0 343.91876 322.26562 343.91876Q321.65625 343.91876 321.25 344.27814Q320.85938 344.6375 320.79688 345.2469L320.79688 349.45L319.71875 349.45L319.71875 345.29376Q319.71875 343.91876 318.35938 343.91876Q317.29688 343.91876 316.90625 344.825L316.90625 349.45L315.8125 349.45L315.8125 343.10626L316.84375 343.10626ZM332.17188 346.35626Q332.17188 347.79376 331.51562 348.6844Q330.85938 349.575 329.71875 349.575Q328.5625 349.575 327.90625 348.84064L327.90625 351.8875L326.82812 351.8875L326.82812 343.10626L327.8125 343.10626L327.85938 343.8094Q328.53125 342.9969 329.70312 342.9969Q330.84375 342.9969 331.5 343.85626Q332.17188 344.71564 332.17188 346.2469L332.17188 346.35626ZM331.09375 346.23126Q331.09375 345.15314 330.625 344.54376Q330.17188 343.91876 329.375 343.91876Q328.39062 343.91876 327.90625 344.77814L327.90625 347.8094Q328.39062 348.6844 329.39062 348.6844Q330.17188 348.6844 330.625 348.075Q331.09375 347.45 331.09375 346.23126ZM336.45312 349.575Q335.15625 349.575 334.34375 348.73126Q333.54688 347.8719 333.54688 346.45L333.54688 346.2625Q333.54688 345.3094 333.90625 344.575Q334.26562 343.825 334.90625 343.41876Q335.5625 342.9969 336.3125 342.9969Q337.54688 342.9969 338.23438 343.8094Q338.92188 344.6219 338.92188 346.1375L338.92188 346.59064L334.625 346.59064Q334.65625 347.52814 335.17188 348.10626Q335.70312 348.6844 336.51562 348.6844Q337.07812 348.6844 337.46875 348.45Q337.875 348.21564 338.1875 347.825L338.84375 348.34064Q338.04688 349.575 336.45312 349.575ZM336.3125 343.8875Q335.65625 343.8875 335.20312 344.3719Q334.76562 344.84064 334.67188 345.7L337.84375 345.7L337.84375 345.6219Q337.79688 344.79376 337.39062 344.34064Q337.0 343.8875 336.3125 343.8875ZM342.89062 344.075Q342.64062 344.04376 342.35938 344.04376Q341.28125 344.04376 340.90625 344.95L340.90625 349.45L339.82812 349.45L339.82812 343.10626L340.875 343.10626L340.89062 343.84064Q341.42188 342.9969 342.40625 342.9969Q342.71875 342.9969 342.89062 343.075L342.89062 344.075ZM347.73438 349.45Q347.64062 349.2625 347.57812 348.77814Q346.82812 349.575 345.78125 349.575Q344.84375 349.575 344.23438 349.04376Q343.64062 348.5125 343.64062 347.6844Q343.64062 346.7 344.39062 346.15314Q345.14062 345.60626 346.51562 345.60626L347.5625 345.60626L347.5625 345.10626Q347.5625 344.54376 347.21875 344.21564Q346.89062 343.8719 346.21875 343.8719Q345.64062 343.8719 345.25 344.16876Q344.85938 344.45 344.85938 344.8719L343.76562 344.8719Q343.76562 344.3875 344.09375 343.95Q344.4375 343.5125 345.01562 343.2625Q345.59375 342.9969 346.28125 342.9969Q347.39062 342.9969 348.0 343.54376Q348.625 344.09064 348.65625 345.04376L348.65625 347.96564Q348.65625 348.84064 348.875 349.35626L348.875 349.45L347.73438 349.45ZM345.9375 348.6219Q346.45312 348.6219 346.90625 348.35626Q347.35938 348.09064 347.5625 347.66876L347.5625 346.3719L346.71875 346.3719Q344.71875 346.3719 344.71875 347.54376Q344.71875 348.04376 345.0625 348.34064Q345.40625 348.6219 345.9375 348.6219ZM352.29688 341.575L352.29688 343.10626L353.46875 343.10626L353.46875 343.95L352.29688 343.95L352.29688 347.8719Q352.29688 348.2625 352.45312 348.45Q352.60938 348.6375 352.98438 348.6375Q353.17188 348.6375 353.5 348.575L353.5 349.45Q353.07812 349.575 352.67188 349.575Q351.95312 349.575 351.57812 349.1375Q351.20312 348.6844 351.20312 347.8719L351.20312 343.95L350.04688 343.95L350.04688 343.10626L351.20312 343.10626L351.20312 341.575L352.29688 341.575ZM358.73438 348.825Q358.10938 349.575 356.875 349.575Q355.85938 349.575 355.32812 348.98126Q354.79688 348.3875 354.79688 347.23126L354.79688 343.10626L355.875 343.10626L355.875 347.2Q355.875 348.65314 357.04688 348.65314Q358.29688 348.65314 358.70312 347.71564L358.70312 343.10626L359.79688 343.10626L359.79688 349.45L358.76562 349.45L358.73438 348.825ZM364.89062 344.075Q364.64062 344.04376 364.35938 344.04376Q363.28125 344.04376 362.90625 344.95L362.90625 349.45L361.82812 349.45L361.82812 343.10626L362.875 343.10626L362.89062 343.84064Q363.42188 342.9969 364.40625 342.9969Q364.71875 342.9969 364.89062 343.075L364.89062 344.075ZM369.73438 349.45Q369.64062 349.2625 369.57812 348.77814Q368.82812 349.575 367.78125 349.575Q366.84375 349.575 366.23438 349.04376Q365.64062 348.5125 365.64062 347.6844Q365.64062 346.7 366.39062 346.15314Q367.14062 345.60626 368.51562 345.60626L369.5625 345.60626L369.5625 345.10626Q369.5625 344.54376 369.21875 344.21564Q368.89062 343.8719 368.21875 343.8719Q367.64062 343.8719 367.25 344.16876Q366.85938 344.45 366.85938 344.8719L365.76562 344.8719Q365.76562 344.3875 366.09375 343.95Q366.4375 343.5125 367.01562 343.2625Q367.59375 342.9969 368.28125 342.9969Q369.39062 342.9969 370.0 343.54376Q370.625 344.09064 370.65625 345.04376L370.65625 347.96564Q370.65625 348.84064 370.875 349.35626L370.875 349.45L369.73438 349.45ZM367.9375 348.6219Q368.45312 348.6219 368.90625 348.35626Q369.35938 348.09064 369.5625 347.66876L369.5625 346.3719L368.71875 346.3719Q366.71875 346.3719 366.71875 347.54376Q366.71875 348.04376 367.0625 348.34064Q367.40625 348.6219 367.9375 348.6219Z" fill-rule="nonzero"/><path fill="#424242" d="M24.206263 223.83958L24.909388 223.80833Q24.096888 223.12083 24.096888 221.93333Q24.096888 220.60521 25.112513 220.12083Q24.659388 219.80833 24.378138 219.30833Q24.096888 218.79271 24.096888 218.10521Q24.096888 216.01146 26.300013 215.98021L30.550013 215.98021L30.550013 217.05833L26.362513 217.05833Q25.690638 217.05833 25.362513 217.37083Q25.018763 217.68333 25.018763 218.41771Q25.018763 219.02708 25.378138 219.43333Q25.737513 219.82396 26.346888 219.88646L30.550013 219.88646L30.550013 220.96458L26.393763 220.96458Q25.018763 220.96458 25.018763 222.32396Q25.018763 223.38646 25.925013 223.77708L30.550013 223.77708L30.550013 224.87083L24.206263 224.87083L24.206263 223.83958ZM30.550013 209.94896Q30.362513 210.04271 29.878138 210.10521Q30.675013 210.85521 30.675013 211.90208Q30.675013 212.83958 30.143763 213.44896Q29.612513 214.04271 28.784388 214.04271Q27.800013 214.04271 27.253138 213.29271Q26.706263 212.54271 26.706263 211.16771L26.706263 210.12083L26.206263 210.12083Q25.643763 210.12083 25.315638 210.46458Q24.971888 210.79271 24.971888 211.46458Q24.971888 212.04271 25.268763 212.43333Q25.550013 212.82396 25.971888 212.82396L25.971888 213.91771Q25.487513 213.91771 25.050013 213.58958Q24.612513 213.24583 24.362513 212.66771Q24.096888 212.08958 24.096888 211.40208Q24.096888 210.29271 24.643763 209.68333Q25.190638 209.05833 26.143763 209.02708L29.065638 209.02708Q29.940638 209.02708 30.456263 208.80833L30.550013 208.80833L30.550013 209.94896ZM29.721888 211.74583Q29.721888 211.23021 29.456263 210.77708Q29.190638 210.32396 28.768763 210.12083L27.471888 210.12083L27.471888 210.96458Q27.471888 212.96458 28.643763 212.96458Q29.143763 212.96458 29.440638 212.62083Q29.721888 212.27708 29.721888 211.74583ZM27.331263 207.12083Q25.846888 207.12083 24.971888 206.43333Q24.096888 205.74583 24.096888 204.62083Q24.096888 203.46458 24.909388 202.80833L24.206263 202.76146L24.206263 201.76146L30.393763 201.76146Q31.628138 201.76146 32.33126 202.49583Q33.05001 203.23021 33.05001 204.44896Q33.05001 205.13646 32.753136 205.79271Q32.45626 206.44896 31.956263 206.79271L31.300013 206.23021Q32.159386 205.54271 32.159386 204.52708Q32.159386 203.74583 31.706263 203.30833Q31.268763 202.85521 30.456263 202.85521L29.909388 202.85521Q30.675013 203.51146 30.675013 204.63646Q30.675013 205.74583 29.784388 206.43333Q28.878138 207.12083 27.331263 207.12083ZM27.456263 206.02708Q28.518763 206.02708 29.143763 205.58958Q29.753138 205.15208 29.753138 204.35521Q29.753138 203.33958 28.815638 202.85521L25.925013 202.85521Q25.018763 203.35521 25.018763 204.35521Q25.018763 205.13646 25.628138 205.58958Q26.237513 206.02708 27.456263 206.02708ZM24.206263 198.83958L25.003138 198.80833Q24.096888 198.07396 24.096888 196.90208Q24.096888 194.88646 26.362513 194.87083L30.550013 194.87083L30.550013 195.96458L26.346888 195.96458Q25.675013 195.96458 25.346888 196.27708Q25.018763 196.57396 25.018763 197.23021Q25.018763 197.76146 25.300013 198.16771Q25.581263 198.55833 26.034388 198.77708L30.550013 198.77708L30.550013 199.85521L24.206263 199.85521L24.206263 198.83958ZM30.675013 190.23021Q30.675013 191.52708 29.831263 192.33958Q28.971888 193.13646 27.550013 193.13646L27.362513 193.13646Q26.409388 193.13646 25.675013 192.77708Q24.925013 192.41771 24.518763 191.77708Q24.096888 191.12083 24.096888 190.37083Q24.096888 189.13646 24.909388 188.44896Q25.721888 187.76146 27.237513 187.76146L27.690638 187.76146L27.690638 192.05833Q28.628138 192.02708 29.206263 191.51146Q29.784388 190.98021 29.784388 190.16771Q29.784388 189.60521 29.550013 189.21458Q29.315638 188.80833 28.925013 188.49583L29.440638 187.83958Q30.675013 188.63646 30.675013 190.23021ZM24.987513 190.37083Q24.987513 191.02708 25.471888 191.48021Q25.940638 191.91771 26.800013 192.01146L26.800013 188.83958L26.721888 188.83958Q25.893763 188.88646 25.440638 189.29271Q24.987513 189.68333 24.987513 190.37083ZM22.675013 185.38646L24.206263 185.38646L24.206263 184.21458L25.050013 184.21458L25.050013 185.38646L28.971888 185.38646Q29.362513 185.38646 29.550013 185.23021Q29.737513 185.07396 29.737513 184.69896Q29.737513 184.51146 29.675013 184.18333L30.550013 184.18333Q30.675013 184.60521 30.675013 185.01146Q30.675013 185.73021 30.237513 186.10521Q29.784388 186.48021 28.971888 186.48021L25.050013 186.48021L25.050013 187.63646L24.206263 187.63646L24.206263 186.48021L22.675013 186.48021L22.675013 185.38646ZM28.956263 180.79271L24.206263 179.30833L24.206263 178.15208L31.534388 180.69896Q33.11251 181.29271 33.11251 182.57396L33.096886 182.79271L33.01876 183.18333L32.14376 183.18333L32.159386 182.90208Q32.159386 182.33958 31.940638 182.04271Q31.721888 181.73021 31.128138 181.52708L30.471888 181.29271L24.206263 183.55833L24.206263 182.37083L28.956263 180.79271ZM29.659388 175.83958L29.659388 172.13646L30.550013 172.13646L30.550013 177.16771L29.753138 177.16771L25.112513 173.66771L25.112513 177.12083L24.206263 177.12083L24.206263 172.30833L24.971888 172.30833L29.659388 175.83958ZM30.550013 166.94896Q30.362513 167.04271 29.878138 167.10521Q30.675013 167.85521 30.675013 168.90208Q30.675013 169.83958 30.143763 170.44896Q29.612513 171.04271 28.784388 171.04271Q27.800013 171.04271 27.253138 170.29271Q26.706263 169.54271 26.706263 168.16771L26.706263 167.12083L26.206263 167.12083Q25.643763 167.12083 25.315638 167.46458Q24.971888 167.79271 24.971888 168.46458Q24.971888 169.04271 25.268763 169.43333Q25.550013 169.82396 25.971888 169.82396L25.971888 170.91771Q25.487513 170.91771 25.050013 170.58958Q24.612513 170.24583 24.362513 169.66771Q24.096888 169.08958 24.096888 168.40208Q24.096888 167.29271 24.643763 166.68333Q25.190638 166.05833 26.143763 166.02708L29.065638 166.02708Q29.940638 166.02708 30.456263 165.80833L30.550013 165.80833L30.550013 166.94896ZM29.721888 168.74583Q29.721888 168.23021 29.456263 167.77708Q29.190638 167.32396 28.768763 167.12083L27.471888 167.12083L27.471888 167.96458Q27.471888 169.96458 28.643763 169.96458Q29.143763 169.96458 29.440638 169.62083Q29.721888 169.27708 29.721888 168.74583ZM29.784388 161.32396Q29.784388 160.74583 29.440638 160.30833Q29.081263 159.87083 28.550013 159.82396L28.550013 158.79271Q29.096888 158.82396 29.596888 159.18333Q30.081263 159.52708 30.378138 160.10521Q30.675013 160.66771 30.675013 161.32396Q30.675013 162.62083 29.815638 163.38646Q28.940638 164.13646 27.440638 164.13646L27.253138 164.13646Q26.331263 164.13646 25.612513 163.80833Q24.893763 163.46458 24.503138 162.83958Q24.096888 162.19896 24.096888 161.32396Q24.096888 160.26146 24.737513 159.55833Q25.362513 158.83958 26.393763 158.79271L26.393763 159.82396Q25.768763 159.87083 25.378138 160.29271Q24.987513 160.71458 24.987513 161.32396Q24.987513 162.15208 25.581263 162.60521Q26.175013 163.05833 27.300013 163.05833L27.503138 163.05833Q28.596888 163.05833 29.190638 162.60521Q29.784388 162.15208 29.784388 161.32396ZM24.206263 156.74583L31.284388 156.74583Q33.11251 156.74583 33.11251 158.40208Q33.11251 158.76146 33.003136 159.05833L32.14376 159.05833Q32.190636 158.87083 32.190636 158.57396Q32.190636 158.21458 31.987513 158.02708Q31.800013 157.82396 31.300013 157.82396L24.206263 157.82396L24.206263 156.74583ZM22.534388 157.93333Q22.268763 157.93333 22.081263 157.77708Q21.893763 157.62083 21.893763 157.30833Q21.893763 156.99583 22.081263 156.83958Q22.268763 156.66771 22.534388 156.66771Q22.784388 156.66771 22.971888 156.83958Q23.143763 156.99583 23.143763 157.30833Q23.143763 157.62083 22.971888 157.77708Q22.784388 157.93333 22.534388 157.93333ZM30.550013 150.94896Q30.362513 151.04271 29.878138 151.10521Q30.675013 151.85521 30.675013 152.90208Q30.675013 153.83958 30.143763 154.44896Q29.612513 155.04271 28.784388 155.04271Q27.800013 155.04271 27.253138 154.29271Q26.706263 153.54271 26.706263 152.16771L26.706263 151.12083L26.206263 151.12083Q25.643763 151.12083 25.315638 151.46458Q24.971888 151.79271 24.971888 152.46458Q24.971888 153.04271 25.268763 153.43333Q25.550013 153.82396 25.971888 153.82396L25.971888 154.91771Q25.487513 154.91771 25.050013 154.58958Q24.612513 154.24583 24.362513 153.66771Q24.096888 153.08958 24.096888 152.40208Q24.096888 151.29271 24.643763 150.68333Q25.190638 150.05833 26.143763 150.02708L29.065638 150.02708Q29.940638 150.02708 30.456263 149.80833L30.550013 149.80833L30.550013 150.94896ZM29.721888 152.74583Q29.721888 152.23021 29.456263 151.77708Q29.190638 151.32396 28.768763 151.12083L27.471888 151.12083L27.471888 151.96458Q27.471888 153.96458 28.643763 153.96458Q29.143763 153.96458 29.440638 153.62083Q29.721888 153.27708 29.721888 152.74583Z" fill-rule="nonzero"/><path fill="#757575" d="M57.6125 299.3094Q57.6125 301.21564 56.95625 302.15314Q56.315624 303.075 54.925 303.075Q53.565624 303.075 52.909374 302.16876Q52.253124 301.2625 52.221874 299.45L52.221874 298.0125Q52.221874 296.1219 52.8625 295.21564Q53.51875 294.29376 54.909374 294.29376Q56.284374 294.29376 56.940624 295.1844Q57.596874 296.0594 57.6125 297.90314L57.6125 299.3094ZM56.51875 297.825Q56.51875 296.45 56.128124 295.825Q55.753124 295.1844 54.909374 295.1844Q54.08125 295.1844 53.690624 295.825Q53.315624 296.45 53.315624 297.7469L53.315624 299.48126Q53.315624 300.85626 53.70625 301.52814Q54.1125 302.1844 54.925 302.1844Q55.721874 302.1844 56.1125 301.5594Q56.503124 300.9344 56.51875 299.60626L56.51875 297.825ZM59.39375 302.3875Q59.39375 302.10626 59.55 301.91876Q59.721874 301.73126 60.05 301.73126Q60.39375 301.73126 60.565624 301.91876Q60.7375 302.10626 60.7375 302.3875Q60.7375 302.65314 60.565624 302.84064Q60.39375 303.0125 60.05 303.0125Q59.721874 303.0125 59.55 302.84064Q59.39375 302.65314 59.39375 302.3875ZM67.6125 299.3094Q67.6125 301.21564 66.95625 302.15314Q66.31563 303.075 64.925 303.075Q63.565624 303.075 62.909374 302.16876Q62.253124 301.2625 62.221874 299.45L62.221874 298.0125Q62.221874 296.1219 62.8625 295.21564Q63.51875 294.29376 64.90938 294.29376Q66.28438 294.29376 66.94063 295.1844Q67.59688 296.0594 67.6125 297.90314L67.6125 299.3094ZM66.51875 297.825Q66.51875 296.45 66.12813 295.825Q65.75313 295.1844 64.90938 295.1844Q64.08125 295.1844 63.690624 295.825Q63.315624 296.45 63.315624 297.7469L63.315624 299.48126Q63.315624 300.85626 63.70625 301.52814Q64.1125 302.1844 64.925 302.1844Q65.72188 302.1844 66.1125 301.5594Q66.50313 300.9344 66.51875 299.60626L66.51875 297.825ZM74.6125 299.3094Q74.6125 301.21564 73.95625 302.15314Q73.31563 303.075 71.925 303.075Q70.56563 303.075 69.90938 302.16876Q69.25313 301.2625 69.22188 299.45L69.22188 298.0125Q69.22188 296.1219 69.8625 295.21564Q70.51875 294.29376 71.90938 294.29376Q73.28438 294.29376 73.94063 295.1844Q74.59688 296.0594 74.6125 297.90314L74.6125 299.3094ZM73.51875 297.825Q73.51875 296.45 73.12813 295.825Q72.75313 295.1844 71.90938 295.1844Q71.08125 295.1844 70.69063 295.825Q70.31563 296.45 70.31563 297.7469L70.31563 299.48126Q70.31563 300.85626 70.70625 301.52814Q71.1125 302.1844 71.925 302.1844Q72.72188 302.1844 73.1125 301.5594Q73.50313 300.9344 73.51875 299.60626L73.51875 297.825ZM81.6125 299.3094Q81.6125 301.21564 80.95625 302.15314Q80.31563 303.075 78.925 303.075Q77.56563 303.075 76.90938 302.16876Q76.25313 301.2625 76.22188 299.45L76.22188 298.0125Q76.22188 296.1219 76.8625 295.21564Q77.51875 294.29376 78.90938 294.29376Q80.28438 294.29376 80.94063 295.1844Q81.59688 296.0594 81.6125 297.90314L81.6125 299.3094ZM80.51875 297.825Q80.51875 296.45 80.12813 295.825Q79.75313 295.1844 78.90938 295.1844Q78.08125 295.1844 77.69063 295.825Q77.31563 296.45 77.31563 297.7469L77.31563 299.48126Q77.31563 300.85626 77.70625 301.52814Q78.1125 302.1844 78.925 302.1844Q79.72188 302.1844 80.1125 301.5594Q80.50313 300.9344 80.51875 299.60626L80.51875 297.825ZM88.6125 299.3094Q88.6125 301.21564 87.95625 302.15314Q87.31563 303.075 85.925 303.075Q84.56563 303.075 83.90938 302.16876Q83.25313 301.2625 83.22188 299.45L83.22188 298.0125Q83.22188 296.1219 83.8625 295.21564Q84.51875 294.29376 85.90938 294.29376Q87.28438 294.29376 87.94063 295.1844Q88.59688 296.0594 88.6125 297.90314L88.6125 299.3094ZM87.51875 297.825Q87.51875 296.45 87.12813 295.825Q86.75313 295.1844 85.90938 295.1844Q85.08125 295.1844 84.69063 295.825Q84.31563 296.45 84.31563 297.7469L84.31563 299.48126Q84.31563 300.85626 84.70625 301.52814Q85.1125 302.1844 85.925 302.1844Q86.72188 302.1844 87.1125 301.5594Q87.50313 300.9344 87.51875 299.60626L87.51875 297.825Z" fill-rule="nonzero"/><path fill="#757575" d="M57.6125 240.30104Q57.6125 242.20729 56.95625 243.14479Q56.315624 244.06667 54.925 244.06667Q53.565624 244.06667 52.909374 243.16042Q52.253124 242.25417 52.221874 240.44167L52.221874 239.00417Q52.221874 237.11354 52.8625 236.20729Q53.51875 235.28542 54.909374 235.28542Q56.284374 235.28542 56.940624 236.17604Q57.596874 237.05104 57.6125 238.89479L57.6125 240.30104ZM56.51875 238.81667Q56.51875 237.44167 56.128124 236.81667Q55.753124 236.17604 54.909374 236.17604Q54.08125 236.17604 53.690624 236.81667Q53.315624 237.44167 53.315624 238.73854L53.315624 240.47292Q53.315624 241.84792 53.70625 242.51979Q54.1125 243.17604 54.925 243.17604Q55.721874 243.17604 56.1125 242.55104Q56.503124 241.92604 56.51875 240.59792L56.51875 238.81667ZM59.39375 243.37917Q59.39375 243.09792 59.55 242.91042Q59.721874 242.72292 60.05 242.72292Q60.39375 242.72292 60.565624 242.91042Q60.7375 243.09792 60.7375 243.37917Q60.7375 243.64479 60.565624 243.83229Q60.39375 244.00417 60.05 244.00417Q59.721874 244.00417 59.55 243.83229Q59.39375 243.64479 59.39375 243.37917ZM67.84688 243.94167L62.253124 243.94167L62.253124 243.16042L65.20625 239.87917Q65.8625 239.12917 66.1125 238.67604Q66.3625 238.20729 66.3625 237.70729Q66.3625 237.03542 65.95625 236.61354Q65.56563 236.17604 64.87813 236.17604Q64.08125 236.17604 63.628124 236.64479Q63.175 237.09792 63.175 237.92604L62.096874 237.92604Q62.096874 236.73854 62.846874 236.01979Q63.6125 235.28542 64.87813 235.28542Q66.08125 235.28542 66.76875 235.91042Q67.45625 236.53542 67.45625 237.58229Q67.45625 238.83229 65.84688 240.58229L63.565624 243.05104L67.84688 243.05104L67.84688 243.94167ZM69.75313 239.66042L70.19063 235.41042L74.56563 235.41042L74.56563 236.41042L71.1125 236.41042L70.84688 238.73854Q71.4875 238.36354 72.28438 238.36354Q73.44063 238.36354 74.12813 239.14479Q74.81563 239.91042 74.81563 241.22292Q74.81563 242.53542 74.09688 243.30104Q73.39375 244.06667 72.1125 244.06667Q70.9875 244.06667 70.26875 243.44167Q69.55 242.80104 69.45625 241.69167L70.47188 241.69167Q70.58125 242.42604 71.00313 242.80104Q71.425 243.17604 72.1125 243.17604Q72.8625 243.17604 73.3 242.66042Q73.7375 242.14479 73.7375 241.23854Q73.7375 240.37917 73.26875 239.86354Q72.8 239.34792 72.01875 239.34792Q71.31563 239.34792 70.90938 239.64479L70.62813 239.87917L69.75313 239.66042ZM81.6125 240.30104Q81.6125 242.20729 80.95625 243.14479Q80.31563 244.06667 78.925 244.06667Q77.56563 244.06667 76.90938 243.16042Q76.25313 242.25417 76.22188 240.44167L76.22188 239.00417Q76.22188 237.11354 76.8625 236.20729Q77.51875 235.28542 78.90938 235.28542Q80.28438 235.28542 80.94063 236.17604Q81.59688 237.05104 81.6125 238.89479L81.6125 240.30104ZM80.51875 238.81667Q80.51875 237.44167 80.12813 236.81667Q79.75313 236.17604 78.90938 236.17604Q78.08125 236.17604 77.69063 236.81667Q77.31563 237.44167 77.31563 238.73854L77.31563 240.47292Q77.31563 241.84792 77.70625 242.51979Q78.1125 243.17604 78.925 243.17604Q79.72188 243.17604 80.1125 242.55104Q80.50313 241.92604 80.51875 240.59792L80.51875 238.81667ZM88.6125 240.30104Q88.6125 242.20729 87.95625 243.14479Q87.31563 244.06667 85.925 244.06667Q84.56563 244.06667 83.90938 243.16042Q83.25313 242.25417 83.22188 240.44167L83.22188 239.00417Q83.22188 237.11354 83.8625 236.20729Q84.51875 235.28542 85.90938 235.28542Q87.28438 235.28542 87.94063 236.17604Q88.59688 237.05104 88.6125 238.89479L88.6125 240.30104ZM87.51875 238.81667Q87.51875 237.44167 87.12813 236.81667Q86.75313 236.17604 85.90938 236.17604Q85.08125 236.17604 84.69063 236.81667Q84.31563 237.44167 84.31563 238.73854L84.31563 240.47292Q84.31563 241.84792 84.70625 242.51979Q85.1125 243.17604 85.925 243.17604Q86.72188 243.17604 87.1125 242.55104Q87.50313 241.92604 87.51875 240.59792L87.51875 238.81667Z" fill-rule="nonzero"/><path fill="#757575" d="M57.6125 181.29271Q57.6125 183.19896 56.95625 184.13646Q56.315624 185.05833 54.925 185.05833Q53.565624 185.05833 52.909374 184.15208Q52.253124 183.24583 52.221874 181.43333L52.221874 179.99583Q52.221874 178.10521 52.8625 177.19896Q53.51875 176.27708 54.909374 176.27708Q56.284374 176.27708 56.940624 177.16771Q57.596874 178.04271 57.6125 179.88646L57.6125 181.29271ZM56.51875 179.80833Q56.51875 178.43333 56.128124 177.80833Q55.753124 177.16771 54.909374 177.16771Q54.08125 177.16771 53.690624 177.80833Q53.315624 178.43333 53.315624 179.73021L53.315624 181.46458Q53.315624 182.83958 53.70625 183.51146Q54.1125 184.16771 54.925 184.16771Q55.721874 184.16771 56.1125 183.54271Q56.503124 182.91771 56.51875 181.58958L56.51875 179.80833ZM59.39375 184.37083Q59.39375 184.08958 59.55 183.90208Q59.721874 183.71458 60.05 183.71458Q60.39375 183.71458 60.565624 183.90208Q60.7375 184.08958 60.7375 184.37083Q60.7375 184.63646 60.565624 184.82396Q60.39375 184.99583 60.05 184.99583Q59.721874 184.99583 59.55 184.82396Q59.39375 184.63646 59.39375 184.37083ZM62.753124 180.65208L63.190624 176.40208L67.56563 176.40208L67.56563 177.40208L64.1125 177.40208L63.846874 179.73021Q64.4875 179.35521 65.28438 179.35521Q66.44063 179.35521 67.12813 180.13646Q67.81563 180.90208 67.81563 182.21458Q67.81563 183.52708 67.09688 184.29271Q66.39375 185.05833 65.1125 185.05833Q63.9875 185.05833 63.26875 184.43333Q62.55 183.79271 62.45625 182.68333L63.471874 182.68333Q63.58125 183.41771 64.00313 183.79271Q64.425 184.16771 65.1125 184.16771Q65.8625 184.16771 66.3 183.65208Q66.7375 183.13646 66.7375 182.23021Q66.7375 181.37083 66.26875 180.85521Q65.8 180.33958 65.01875 180.33958Q64.31563 180.33958 63.909374 180.63646L63.628124 180.87083L62.753124 180.65208ZM74.6125 181.29271Q74.6125 183.19896 73.95625 184.13646Q73.31563 185.05833 71.925 185.05833Q70.56563 185.05833 69.90938 184.15208Q69.25313 183.24583 69.22188 181.43333L69.22188 179.99583Q69.22188 178.10521 69.8625 177.19896Q70.51875 176.27708 71.90938 176.27708Q73.28438 176.27708 73.94063 177.16771Q74.59688 178.04271 74.6125 179.88646L74.6125 181.29271ZM73.51875 179.80833Q73.51875 178.43333 73.12813 177.80833Q72.75313 177.16771 71.90938 177.16771Q71.08125 177.16771 70.69063 177.80833Q70.31563 178.43333 70.31563 179.73021L70.31563 181.46458Q70.31563 182.83958 70.70625 183.51146Q71.1125 184.16771 71.925 184.16771Q72.72188 184.16771 73.1125 183.54271Q73.50313 182.91771 73.51875 181.58958L73.51875 179.80833ZM81.6125 181.29271Q81.6125 183.19896 80.95625 184.13646Q80.31563 185.05833 78.925 185.05833Q77.56563 185.05833 76.90938 184.15208Q76.25313 183.24583 76.22188 181.43333L76.22188 179.99583Q76.22188 178.10521 76.8625 177.19896Q77.51875 176.27708 78.90938 176.27708Q80.28438 176.27708 80.94063 177.16771Q81.59688 178.04271 81.6125 179.88646L81.6125 181.29271ZM80.51875 179.80833Q80.51875 178.43333 80.12813 177.80833Q79.75313 177.16771 78.90938 177.16771Q78.08125 177.16771 77.69063 177.80833Q77.31563 178.43333 77.31563 179.73021L77.31563 181.46458Q77.31563 182.83958 77.70625 183.51146Q78.1125 184.16771 78.925 184.16771Q79.72188 184.16771 80.1125 183.54271Q80.50313 182.91771 80.51875 181.58958L80.51875 179.80833ZM88.6125 181.29271Q88.6125 183.19896 87.95625 184.13646Q87.31563 185.05833 85.925 185.05833Q84.56563 185.05833 83.90938 184.15208Q83.25313 183.24583 83.22188 181.43333L83.22188 179.99583Q83.22188 178.10521 83.8625 177.19896Q84.51875 176.27708 85.90938 176.27708Q87.28438 176.27708 87.94063 177.16771Q88.59688 178.04271 88.6125 179.88646L88.6125 181.29271ZM87.51875 179.80833Q87.51875 178.43333 87.12813 177.80833Q86.75313 177.16771 85.90938 177.16771Q85.08125 177.16771 84.69063 177.80833Q84.31563 178.43333 84.31563 179.73021L84.31563 181.46458Q84.31563 182.83958 84.70625 183.51146Q85.1125 184.16771 85.925 184.16771Q86.72188 184.16771 87.1125 183.54271Q87.50313 182.91771 87.51875 181.58958L87.51875 179.80833Z" fill-rule="nonzero"/><path fill="#757575" d="M57.6125 122.28438Q57.6125 124.19063 56.95625 125.12813Q56.315624 126.05 54.925 126.05Q53.565624 126.05 52.909374 125.14375Q52.253124 124.2375 52.221874 122.425L52.221874 120.9875Q52.221874 119.09688 52.8625 118.19063Q53.51875 117.26875 54.909374 117.26875Q56.284374 117.26875 56.940624 118.15938Q57.596874 119.03438 57.6125 120.87813L57.6125 122.28438ZM56.51875 120.8Q56.51875 119.425 56.128124 118.8Q55.753124 118.15938 54.909374 118.15938Q54.08125 118.15938 53.690624 118.8Q53.315624 119.425 53.315624 120.72188L53.315624 122.45625Q53.315624 123.83125 53.70625 124.50313Q54.1125 125.15938 54.925 125.15938Q55.721874 125.15938 56.1125 124.53438Q56.503124 123.90938 56.51875 122.58125L56.51875 120.8ZM59.39375 125.3625Q59.39375 125.08125 59.55 124.89375Q59.721874 124.70625 60.05 124.70625Q60.39375 124.70625 60.565624 124.89375Q60.7375 125.08125 60.7375 125.3625Q60.7375 125.62813 60.565624 125.81563Q60.39375 125.9875 60.05 125.9875Q59.721874 125.9875 59.55 125.81563Q59.39375 125.62813 59.39375 125.3625ZM67.76875 118.00313L64.2375 125.925L63.096874 125.925L66.6125 118.28438L62.003124 118.28438L62.003124 117.39375L67.76875 117.39375L67.76875 118.00313ZM69.75313 121.64375L70.19063 117.39375L74.56563 117.39375L74.56563 118.39375L71.1125 118.39375L70.84688 120.72188Q71.4875 120.34688 72.28438 120.34688Q73.44063 120.34688 74.12813 121.12813Q74.81563 121.89375 74.81563 123.20625Q74.81563 124.51875 74.09688 125.28438Q73.39375 126.05 72.1125 126.05Q70.9875 126.05 70.26875 125.425Q69.55 124.78438 69.45625 123.675L70.47188 123.675Q70.58125 124.40938 71.00313 124.78438Q71.425 125.15938 72.1125 125.15938Q72.8625 125.15938 73.3 124.64375Q73.7375 124.12813 73.7375 123.22188Q73.7375 122.3625 73.26875 121.84688Q72.8 121.33125 72.01875 121.33125Q71.31563 121.33125 70.90938 121.62813L70.62813 121.8625L69.75313 121.64375ZM81.6125 122.28438Q81.6125 124.19063 80.95625 125.12813Q80.31563 126.05 78.925 126.05Q77.56563 126.05 76.90938 125.14375Q76.25313 124.2375 76.22188 122.425L76.22188 120.9875Q76.22188 119.09688 76.8625 118.19063Q77.51875 117.26875 78.90938 117.26875Q80.28438 117.26875 80.94063 118.15938Q81.59688 119.03438 81.6125 120.87813L81.6125 122.28438ZM80.51875 120.8Q80.51875 119.425 80.12813 118.8Q79.75313 118.15938 78.90938 118.15938Q78.08125 118.15938 77.69063 118.8Q77.31563 119.425 77.31563 120.72188L77.31563 122.45625Q77.31563 123.83125 77.70625 124.50313Q78.1125 125.15938 78.925 125.15938Q79.72188 125.15938 80.1125 124.53438Q80.50313 123.90938 80.51875 122.58125L80.51875 120.8ZM88.6125 122.28438Q88.6125 124.19063 87.95625 125.12813Q87.31563 126.05 85.925 126.05Q84.56563 126.05 83.90938 125.14375Q83.25313 124.2375 83.22188 122.425L83.22188 120.9875Q83.22188 119.09688 83.8625 118.19063Q84.51875 117.26875 85.90938 117.26875Q87.28438 117.26875 87.94063 118.15938Q88.59688 119.03438 88.6125 120.87813L88.6125 122.28438ZM87.51875 120.8Q87.51875 119.425 87.12813 118.8Q86.75313 118.15938 85.90938 118.15938Q85.08125 118.15938 84.69063 118.8Q84.31563 119.425 84.31563 120.72188L84.31563 122.45625Q84.31563 123.83125 84.70625 124.50313Q85.1125 125.15938 85.925 125.15938Q86.72188 125.15938 87.1125 124.53438Q87.50313 123.90938 87.51875 122.58125L87.51875 120.8Z" fill-rule="nonzero"/><path fill="#757575" d="M55.815624 66.916664L54.7375 66.916664L54.7375 59.697914L52.55 60.49479L52.55 59.510414L55.659374 58.33854L55.815624 58.33854L55.815624 66.916664ZM59.39375 66.354164Q59.39375 66.072914 59.55 65.885414Q59.721874 65.697914 60.05 65.697914Q60.39375 65.697914 60.565624 65.885414Q60.7375 66.072914 60.7375 66.354164Q60.7375 66.61979 60.565624 66.80729Q60.39375 66.979164 60.05 66.979164Q59.721874 66.979164 59.55 66.80729Q59.39375 66.61979 59.39375 66.354164ZM67.6125 63.27604Q67.6125 65.18229 66.95625 66.11979Q66.31563 67.041664 64.925 67.041664Q63.565624 67.041664 62.909374 66.135414Q62.253124 65.229164 62.221874 63.416664L62.221874 61.979164Q62.221874 60.08854 62.8625 59.18229Q63.51875 58.260414 64.90938 58.260414Q66.28438 58.260414 66.94063 59.15104Q67.59688 60.02604 67.6125 61.86979L67.6125 63.27604ZM66.51875 61.791664Q66.51875 60.416664 66.12813 59.791664Q65.75313 59.15104 64.90938 59.15104Q64.08125 59.15104 63.690624 59.791664Q63.315624 60.416664 63.315624 61.71354L63.315624 63.447914Q63.315624 64.822914 63.70625 65.49479Q64.1125 66.15104 64.925 66.15104Q65.72188 66.15104 66.1125 65.52604Q66.50313 64.90104 66.51875 63.572914L66.51875 61.791664ZM74.6125 63.27604Q74.6125 65.18229 73.95625 66.11979Q73.31563 67.041664 71.925 67.041664Q70.56563 67.041664 69.90938 66.135414Q69.25313 65.229164 69.22188 63.416664L69.22188 61.979164Q69.22188 60.08854 69.8625 59.18229Q70.51875 58.260414 71.90938 58.260414Q73.28438 58.260414 73.94063 59.15104Q74.59688 60.02604 74.6125 61.86979L74.6125 63.27604ZM73.51875 61.791664Q73.51875 60.416664 73.12813 59.791664Q72.75313 59.15104 71.90938 59.15104Q71.08125 59.15104 70.69063 59.791664Q70.31563 60.416664 70.31563 61.71354L70.31563 63.447914Q70.31563 64.822914 70.70625 65.49479Q71.1125 66.15104 71.925 66.15104Q72.72188 66.15104 73.1125 65.52604Q73.50313 64.90104 73.51875 63.572914L73.51875 61.791664ZM81.6125 63.27604Q81.6125 65.18229 80.95625 66.11979Q80.31563 67.041664 78.925 67.041664Q77.56563 67.041664 76.90938 66.135414Q76.25313 65.229164 76.22188 63.416664L76.22188 61.979164Q76.22188 60.08854 76.8625 59.18229Q77.51875 58.260414 78.90938 58.260414Q80.28438 58.260414 80.94063 59.15104Q81.59688 60.02604 81.6125 61.86979L81.6125 63.27604ZM80.51875 61.791664Q80.51875 60.416664 80.12813 59.791664Q79.75313 59.15104 78.90938 59.15104Q78.08125 59.15104 77.69063 59.791664Q77.31563 60.416664 77.31563 61.71354L77.31563 63.447914Q77.31563 64.822914 77.70625 65.49479Q78.1125 66.15104 78.925 66.15104Q79.72188 66.15104 80.1125 65.52604Q80.50313 64.90104 80.51875 63.572914L80.51875 61.791664ZM88.6125 63.27604Q88.6125 65.18229 87.95625 66.11979Q87.31563 67.041664 85.925 67.041664Q84.56563 67.041664 83.90938 66.135414Q83.25313 65.229164 83.22188 63.416664L83.22188 61.979164Q83.22188 60.08854 83.8625 59.18229Q84.51875 58.260414 85.90938 58.260414Q87.28438 58.260414 87.94063 59.15104Q88.59688 60.02604 88.6125 61.86979L88.6125 63.27604ZM87.51875 61.791664Q87.51875 60.416664 87.12813 59.791664Q86.75313 59.15104 85.90938 59.15104Q85.08125 59.15104 84.69063 59.791664Q84.31563 60.416664 84.31563 61.71354L84.31563 63.447914Q84.31563 64.822914 84.70625 65.49479Q85.1125 66.15104 85.925 66.15104Q86.72188 66.15104 87.1125 65.52604Q87.50313 64.90104 87.51875 63.572914L87.51875 61.791664Z" fill-rule="nonzero"/><path fill="#757575" d="M179.74265 316.45L178.66452 316.45L178.66452 309.23126L176.47702 310.02814L176.47702 309.04376L179.5864 307.8719L179.74265 307.8719L179.74265 316.45ZM183.32077 315.8875Q183.32077 315.60626 183.47702 315.41876Q183.6489 315.23126 183.97702 315.23126Q184.32077 315.23126 184.49265 315.41876Q184.66452 315.60626 184.66452 315.8875Q184.66452 316.15314 184.49265 316.34064Q184.32077 316.5125 183.97702 316.5125Q183.6489 316.5125 183.47702 316.34064Q183.32077 316.15314 183.32077 315.8875ZM191.53952 312.8094Q191.53952 314.71564 190.88327 315.65314Q190.24265 316.575 188.85202 316.575Q187.49265 316.575 186.8364 315.66876Q186.18015 314.7625 186.1489 312.95L186.1489 311.5125Q186.1489 309.6219 186.78952 308.71564Q187.44577 307.79376 188.8364 307.79376Q190.2114 307.79376 190.86765 308.6844Q191.5239 309.5594 191.53952 311.40314L191.53952 312.8094ZM190.44577 311.325Q190.44577 309.95 190.05515 309.325Q189.68015 308.6844 188.8364 308.6844Q188.00827 308.6844 187.61765 309.325Q187.24265 309.95 187.24265 311.2469L187.24265 312.98126Q187.24265 314.35626 187.63327 315.02814Q188.03952 315.6844 188.85202 315.6844Q189.6489 315.6844 190.03952 315.0594Q190.43015 314.4344 190.44577 313.10626L190.44577 311.325ZM198.53952 312.8094Q198.53952 314.71564 197.88327 315.65314Q197.24265 316.575 195.85202 316.575Q194.49265 316.575 193.8364 315.66876Q193.18015 314.7625 193.1489 312.95L193.1489 311.5125Q193.1489 309.6219 193.78952 308.71564Q194.44577 307.79376 195.8364 307.79376Q197.2114 307.79376 197.86765 308.6844Q198.5239 309.5594 198.53952 311.40314L198.53952 312.8094ZM197.44577 311.325Q197.44577 309.95 197.05515 309.325Q196.68015 308.6844 195.8364 308.6844Q195.00827 308.6844 194.61765 309.325Q194.24265 309.95 194.24265 311.2469L194.24265 312.98126Q194.24265 314.35626 194.63327 315.02814Q195.03952 315.6844 195.85202 315.6844Q196.6489 315.6844 197.03952 315.0594Q197.43015 314.4344 197.44577 313.10626L197.44577 311.325Z" fill-rule="nonzero"/><path fill="#757575" d="M313.09824 316.45L307.5045 316.45L307.5045 315.66876L310.4576 312.3875Q311.11386 311.6375 311.36386 311.1844Q311.61386 310.71564 311.61386 310.21564Q311.61386 309.54376 311.2076 309.1219Q310.817 308.6844 310.1295 308.6844Q309.3326 308.6844 308.8795 309.15314Q308.42636 309.60626 308.42636 310.4344L307.34824 310.4344Q307.34824 309.2469 308.09824 308.52814Q308.86386 307.79376 310.1295 307.79376Q311.3326 307.79376 312.0201 308.41876Q312.7076 309.04376 312.7076 310.09064Q312.7076 311.34064 311.09824 313.09064L308.817 315.5594L313.09824 315.5594L313.09824 316.45ZM314.6451 315.8875Q314.6451 315.60626 314.80136 315.41876Q314.97324 315.23126 315.30136 315.23126Q315.6451 315.23126 315.817 315.41876Q315.98886 315.60626 315.98886 315.8875Q315.98886 316.15314 315.817 316.34064Q315.6451 316.5125 315.30136 316.5125Q314.97324 316.5125 314.80136 316.34064Q314.6451 316.15314 314.6451 315.8875ZM322.86386 312.8094Q322.86386 314.71564 322.2076 315.65314Q321.567 316.575 320.17636 316.575Q318.817 316.575 318.16074 315.66876Q317.5045 314.7625 317.47324 312.95L317.47324 311.5125Q317.47324 309.6219 318.11386 308.71564Q318.7701 307.79376 320.16074 307.79376Q321.53574 307.79376 322.192 308.6844Q322.84824 309.5594 322.86386 311.40314L322.86386 312.8094ZM321.7701 311.325Q321.7701 309.95 321.3795 309.325Q321.0045 308.6844 320.16074 308.6844Q319.3326 308.6844 318.942 309.325Q318.567 309.95 318.567 311.2469L318.567 312.98126Q318.567 314.35626 318.9576 315.02814Q319.36386 315.6844 320.17636 315.6844Q320.97324 315.6844 321.36386 315.0594Q321.7545 314.4344 321.7701 313.10626L321.7701 311.325ZM329.86386 312.8094Q329.86386 314.71564 329.2076 315.65314Q328.567 316.575 327.17636 316.575Q325.817 316.575 325.16074 315.66876Q324.5045 314.7625 324.47324 312.95L324.47324 311.5125Q324.47324 309.6219 325.11386 308.71564Q325.7701 307.79376 327.16074 307.79376Q328.53574 307.79376 329.192 308.6844Q329.84824 309.5594 329.86386 311.40314L329.86386 312.8094ZM328.7701 311.325Q328.7701 309.95 328.3795 309.325Q328.0045 308.6844 327.16074 308.6844Q326.3326 308.6844 325.942 309.325Q325.567 309.95 325.567 311.2469L325.567 312.98126Q325.567 314.35626 325.9576 315.02814Q326.36386 315.6844 327.17636 315.6844Q327.97324 315.6844 328.36386 315.0594Q328.7545 314.4344 328.7701 313.10626L328.7701 311.325Z" fill-rule="nonzero"/><path fill="#757575" d="M440.40692 311.65314L441.21942 311.65314Q442.00067 311.6375 442.43817 311.2469Q442.87567 310.85626 442.87567 310.1844Q442.87567 308.6844 441.37567 308.6844Q440.67255 308.6844 440.25067 309.09064Q439.84442 309.4969 439.84442 310.15314L438.75067 310.15314Q438.75067 309.1375 439.48505 308.46564Q440.23505 307.79376 441.37567 307.79376Q442.5788 307.79376 443.2663 308.4344Q443.9538 309.075 443.9538 310.21564Q443.9538 310.77814 443.59442 311.29376Q443.23505 311.8094 442.61005 312.075Q443.31317 312.29376 443.68817 312.8094Q444.0788 313.325 444.0788 314.075Q444.0788 315.21564 443.3288 315.90314Q442.5788 316.575 441.37567 316.575Q440.18817 316.575 439.42255 315.91876Q438.67255 315.2625 438.67255 314.2L439.7663 314.2Q439.7663 314.8719 440.2038 315.27814Q440.6413 315.6844 441.3913 315.6844Q442.17255 315.6844 442.5788 315.27814Q443.00067 314.85626 443.00067 314.09064Q443.00067 313.35626 442.54755 312.96564Q442.09442 312.5594 441.21942 312.54376L440.40692 312.54376L440.40692 311.65314ZM445.96942 315.8875Q445.96942 315.60626 446.12567 315.41876Q446.29755 315.23126 446.62567 315.23126Q446.96942 315.23126 447.1413 315.41876Q447.31317 315.60626 447.31317 315.8875Q447.31317 316.15314 447.1413 316.34064Q446.96942 316.5125 446.62567 316.5125Q446.29755 316.5125 446.12567 316.34064Q445.96942 316.15314 445.96942 315.8875ZM454.18817 312.8094Q454.18817 314.71564 453.53192 315.65314Q452.8913 316.575 451.50067 316.575Q450.1413 316.575 449.48505 315.66876Q448.8288 314.7625 448.79755 312.95L448.79755 311.5125Q448.79755 309.6219 449.43817 308.71564Q450.09442 307.79376 451.48505 307.79376Q452.86005 307.79376 453.5163 308.6844Q454.17255 309.5594 454.18817 311.40314L454.18817 312.8094ZM453.09442 311.325Q453.09442 309.95 452.7038 309.325Q452.3288 308.6844 451.48505 308.6844Q450.65692 308.6844 450.2663 309.325Q449.8913 309.95 449.8913 311.2469L449.8913 312.98126Q449.8913 314.35626 450.28192 315.02814Q450.68817 315.6844 451.50067 315.6844Q452.29755 315.6844 452.68817 315.0594Q453.0788 314.4344 453.09442 313.10626L453.09442 311.325ZM461.18817 312.8094Q461.18817 314.71564 460.53192 315.65314Q459.8913 316.575 458.50067 316.575Q457.1413 316.575 456.48505 315.66876Q455.8288 314.7625 455.79755 312.95L455.79755 311.5125Q455.79755 309.6219 456.43817 308.71564Q457.09442 307.79376 458.48505 307.79376Q459.86005 307.79376 460.5163 308.6844Q461.17255 309.5594 461.18817 311.40314L461.18817 312.8094ZM460.09442 311.325Q460.09442 309.95 459.7038 309.325Q459.3288 308.6844 458.48505 308.6844Q457.65692 308.6844 457.2663 309.325Q456.8913 309.95 456.8913 311.2469L456.8913 312.98126Q456.8913 314.35626 457.28192 315.02814Q457.68817 315.6844 458.50067 315.6844Q459.29755 315.6844 459.68817 315.0594Q460.0788 314.4344 460.09442 313.10626L460.09442 311.325Z" fill-rule="nonzero"/><path fill="#757575" d="M574.73126 313.59064L575.91876 313.59064L575.91876 314.46564L574.73126 314.46564L574.73126 316.45L573.65314 316.45L573.65314 314.46564L569.7625 314.46564L569.7625 313.825L573.575 307.91876L574.73126 307.91876L574.73126 313.59064ZM570.9969 313.59064L573.65314 313.59064L573.65314 309.40314L573.5125 309.6375L570.9969 313.59064ZM577.29376 315.8875Q577.29376 315.60626 577.45 315.41876Q577.6219 315.23126 577.95 315.23126Q578.29376 315.23126 578.46564 315.41876Q578.6375 315.60626 578.6375 315.8875Q578.6375 316.15314 578.46564 316.34064Q578.29376 316.5125 577.95 316.5125Q577.6219 316.5125 577.45 316.34064Q577.29376 316.15314 577.29376 315.8875ZM585.5125 312.8094Q585.5125 314.71564 584.85626 315.65314Q584.21564 316.575 582.825 316.575Q581.46564 316.575 580.8094 315.66876Q580.15314 314.7625 580.1219 312.95L580.1219 311.5125Q580.1219 309.6219 580.7625 308.71564Q581.41876 307.79376 582.8094 307.79376Q584.1844 307.79376 584.84064 308.6844Q585.4969 309.5594 585.5125 311.40314L585.5125 312.8094ZM584.41876 311.325Q584.41876 309.95 584.02814 309.325Q583.65314 308.6844 582.8094 308.6844Q581.98126 308.6844 581.59064 309.325Q581.21564 309.95 581.21564 311.2469L581.21564 312.98126Q581.21564 314.35626 581.60626 315.02814Q582.0125 315.6844 582.825 315.6844Q583.6219 315.6844 584.0125 315.0594Q584.40314 314.4344 584.41876 313.10626L584.41876 311.325ZM592.5125 312.8094Q592.5125 314.71564 591.85626 315.65314Q591.21564 316.575 589.825 316.575Q588.46564 316.575 587.8094 315.66876Q587.15314 314.7625 587.1219 312.95L587.1219 311.5125Q587.1219 309.6219 587.7625 308.71564Q588.41876 307.79376 589.8094 307.79376Q591.1844 307.79376 591.84064 308.6844Q592.4969 309.5594 592.5125 311.40314L592.5125 312.8094ZM591.41876 311.325Q591.41876 309.95 591.02814 309.325Q590.65314 308.6844 589.8094 308.6844Q588.98126 308.6844 588.59064 309.325Q588.21564 309.95 588.21564 311.2469L588.21564 312.98126Q588.21564 314.35626 588.60626 315.02814Q589.0125 315.6844 589.825 315.6844Q590.6219 315.6844 591.0125 315.0594Q591.40314 314.4344 591.41876 313.10626L591.41876 311.325Z" fill-rule="nonzero"/><path fill="#757575" d="M26.159374 23.33125L28.05 23.33125L28.05 33.39375Q28.05 35.440624 26.815624 36.596874Q25.596874 37.753124 23.55 37.753124Q21.425 37.753124 20.2375 36.675Q19.065624 35.58125 19.065624 33.628124L20.940624 33.628124Q20.940624 34.846874 21.6125 35.534374Q22.284374 36.20625 23.55 36.20625Q24.70625 36.20625 25.425 35.4875Q26.14375 34.753124 26.159374 33.425L26.159374 23.33125ZM44.175 29.596874L36.034374 29.596874L36.034374 28.034374L44.175 28.034374L44.175 29.596874ZM44.175 33.659374L36.034374 33.659374L36.034374 32.096874L44.175 32.096874L44.175 33.659374ZM57.675 37.55L55.846874 37.55L55.846874 25.503124L52.20625 26.846874L52.20625 25.20625L57.39375 23.26875L57.675 23.26875L57.675 37.55ZM62.8625 40.378124L61.83125 39.675Q62.753124 38.39375 62.784374 37.034374L62.784374 35.409374L64.56563 35.409374L64.56563 36.83125Q64.56563 37.815624 64.08125 38.8Q63.596874 39.784374 62.8625 40.378124ZM74.8625 32.659374L73.7375 33.83125L73.7375 37.55L71.925 37.55L71.925 22.55L73.7375 22.55L73.7375 31.628124L74.70625 30.45625L77.9875 26.9875L80.19063 26.9875L76.08125 31.39375L80.675 37.55L78.55 37.55L74.8625 32.659374ZM95.175 29.596874L87.03438 29.596874L87.03438 28.034374L95.175 28.034374L95.175 29.596874ZM95.175 33.659374L87.03438 33.659374L87.03438 32.096874L95.175 32.096874L95.175 33.659374ZM103.675 37.55L101.84688 37.55L101.84688 25.503124L98.20625 26.846874L98.20625 25.20625L103.39375 23.26875L103.675 23.26875L103.675 37.55Z" fill-rule="nonzero"/></svg>