<svg version="1.1" viewBox="0.0 0.0 600.0 371.0" fill="none" stroke="none" stroke-linecap="square" stroke-miterlimit="10" width="600" height="371" xmlns:xlink="http://www.w3.org/1999/xlink" xmlns="http://www.w3.org/2000/svg"><path fill="#ffffff" d="M0 0L600.0 0L600.0 371.0L0 371.0L0 0Z" fill-rule="nonzero"/><path fill="#ffffff" d="M0 0L600.0 0L600.0 371.0L0 371.0L0 0Z" fill-rule="nonzero"/><path stroke="#cccccc" stroke-width="1.0" stroke-linecap="butt" d="M151.5 62.5L151.5 298.5" fill-rule="nonzero"/><path stroke="#cccccc" stroke-width="1.0" stroke-linecap="butt" d="M213.5 62.5L213.5 298.5" fill-rule="nonzero"/><path stroke="#cccccc" stroke-width="1.0" stroke-linecap="butt" d="M274.5 62.5L274.5 298.5" fill-rule="nonzero"/><path stroke="#cccccc" stroke-width="1.0" stroke-linecap="butt" d="M335.5 62.5L335.5 298.5" fill-rule="nonzero"/><path stroke="#cccccc" stroke-width="1.0" stroke-linecap="butt" d="M397.5 62.5L397.5 298.5" fill-rule="nonzero"/><path stroke="#cccccc" stroke-width="1.0" stroke-linecap="butt" d="M458.5 62.5L458.5 298.5" fill-rule="nonzero"/><path stroke="#cccccc" stroke-width="1.0" stroke-linecap="butt" d="M520.5 62.5L520.5 298.5" fill-rule="nonzero"/><path stroke="#cccccc" stroke-width="1.0" stroke-linecap="butt" d="M581.5 62.5L581.5 298.5" fill-rule="nonzero"/><path stroke="#333333" stroke-width="1.0" stroke-linecap="butt" d="M102.5 298.5L581.5 298.5" fill-rule="nonzero"/><path stroke="#cccccc" stroke-width="1.0" stroke-linecap="butt" d="M102.5 239.5L581.5 239.5" fill-rule="nonzero"/><path stroke="#cccccc" stroke-width="1.0" stroke-linecap="butt" d="M102.5 180.5L581.5 180.5" fill-rule="nonzero"/><path stroke="#cccccc" stroke-width="1.0" stroke-linecap="butt" d="M102.5 121.5L581.5 121.5" fill-rule="nonzero"/><path stroke="#cccccc" stroke-width="1.0" stroke-linecap="butt" d="M102.5 62.5L581.5 62.5" fill-rule="nonzero"/><clipPath id="id_0"><path d="M102.55 62.416668L581.45 62.416668L581.45 298.45L102.55 298.45L102.55 62.416668Z" clip-rule="nonzero"/></clipPath><path stroke="#4285f4" stroke-width="2.0" stroke-linecap="butt" clip-path="url(#id_0)" d="M102.55 62.416668L114.82949 62.416668L127.10897 62.416668L139.38846 62.416668L151.66795 62.43083L163.94743 62.489838L176.22693 62.666862L188.50641 63.12713L200.7859 64.031136L213.06538 65.640884L225.34488 68.30098L237.62436 72.70772L249.90384 80.020035L262.18332 93.797295L274.46283 158.57428L286.7423 238.9696L299.0218 270.8105L311.30127 278.55002L323.58078 284.37534L335.86026 285.7349L348.13974 287.13455L360.41922 288.26517L372.69873 288.62158L384.9782 289.22818L397.2577 289.93393L409.53717 290.1251L421.81668 290.71756L434.09616 290.79544L446.37564 291.08102L458.65512 291.5177L470.9346 291.8623L483.2141 291.9355L495.4936 291.97324L507.77307 292.1196L520.05255 292.32022L532.33203 292.33438L544.6115 292.55624L556.89105 292.63177L569.17053 292.71912L581.45 292.87253" fill-rule="nonzero"/><path fill="#424242" d="M310.79688 341.575L310.79688 343.10626L311.96875 343.10626L311.96875 343.95L310.79688 343.95L310.79688 347.8719Q310.79688 348.2625 310.95312 348.45Q311.10938 348.6375 311.48438 348.6375Q311.67188 348.6375 312.0 348.575L312.0 349.45Q311.57812 349.575 311.17188 349.575Q310.45312 349.575 310.07812 349.1375Q309.70312 348.6844 309.70312 347.8719L309.70312 343.95L308.54688 343.95L308.54688 343.10626L309.70312 343.10626L309.70312 341.575L310.79688 341.575ZM315.95312 349.575Q314.65625 349.575 313.84375 348.73126Q313.04688 347.8719 313.04688 346.45L313.04688 346.2625Q313.04688 345.3094 313.40625 344.575Q313.76562 343.825 314.40625 343.41876Q315.0625 342.9969 315.8125 342.9969Q317.04688 342.9969 317.73438 343.8094Q318.42188 344.6219 318.42188 346.1375L318.42188 346.59064L314.125 346.59064Q314.15625 347.52814 314.67188 348.10626Q315.20312 348.6844 316.01562 348.6844Q316.57812 348.6844 316.96875 348.45Q317.375 348.21564 317.6875 347.825L318.34375 348.34064Q317.54688 349.575 315.95312 349.575ZM315.8125 343.8875Q315.15625 343.8875 314.70312 344.3719Q314.26562 344.84064 314.17188 345.7L317.34375 345.7L317.34375 345.6219Q317.29688 344.79376 316.89062 344.34064Q316.5 343.8875 315.8125 343.8875ZM320.34375 343.10626L320.375 343.8094Q321.0625 342.9969 322.25 342.9969Q323.57812 342.9969 324.0625 344.0125Q324.375 343.5594 324.875 343.27814Q325.39062 342.9969 326.07812 342.9969Q328.17188 342.9969 328.20312 345.2L328.20312 349.45L327.125 349.45L327.125 345.2625Q327.125 344.59064 326.8125 344.2625Q326.5 343.91876 325.76562 343.91876Q325.15625 343.91876 324.75 344.27814Q324.35938 344.6375 324.29688 345.2469L324.29688 349.45L323.21875 349.45L323.21875 345.29376Q323.21875 343.91876 321.85938 343.91876Q320.79688 343.91876 320.40625 344.825L320.40625 349.45L319.3125 349.45L319.3125 343.10626L320.34375 343.10626ZM335.67188 346.35626Q335.67188 347.79376 335.01562 348.6844Q334.35938 349.575 333.21875 349.575Q332.0625 349.575 331.40625 348.84064L331.40625 351.8875L330.32812 351.8875L330.32812 343.10626L331.3125 343.10626L331.35938 343.8094Q332.03125 342.9969 333.20312 342.9969Q334.34375 342.9969 335.0 343.85626Q335.67188 344.71564 335.67188 346.2469L335.67188 346.35626ZM334.59375 346.23126Q334.59375 345.15314 334.125 344.54376Q333.67188 343.91876 332.875 343.91876Q331.89062 343.91876 331.40625 344.77814L331.40625 347.8094Q331.89062 348.6844 332.89062 348.6844Q333.67188 348.6844 334.125 348.075Q334.59375 347.45 334.59375 346.23126ZM339.95312 349.575Q338.65625 349.575 337.84375 348.73126Q337.04688 347.8719 337.04688 346.45L337.04688 346.2625Q337.04688 345.3094 337.40625 344.575Q337.76562 343.825 338.40625 343.41876Q339.0625 342.9969 339.8125 342.9969Q341.04688 342.9969 341.73438 343.8094Q342.42188 344.6219 342.42188 346.1375L342.42188 346.59064L338.125 346.59064Q338.15625 347.52814 338.67188 348.10626Q339.20312 348.6844 340.01562 348.6844Q340.57812 348.6844 340.96875 348.45Q341.375 348.21564 341.6875 347.825L342.34375 348.34064Q341.54688 349.575 339.95312 349.575ZM339.8125 343.8875Q339.15625 343.8875 338.70312 344.3719Q338.26562 344.84064 338.17188 345.7L341.34375 345.7L341.34375 345.6219Q341.29688 344.79376 340.89062 344.34064Q340.5 343.8875 339.8125 343.8875ZM346.39062 344.075Q346.14062 344.04376 345.85938 344.04376Q344.78125 344.04376 344.40625 344.95L344.40625 349.45L343.32812 349.45L343.32812 343.10626L344.375 343.10626L344.39062 343.84064Q344.92188 342.9969 345.90625 342.9969Q346.21875 342.9969 346.39062 343.075L346.39062 344.075ZM351.23438 349.45Q351.14062 349.2625 351.07812 348.77814Q350.32812 349.575 349.28125 349.575Q348.34375 349.575 347.73438 349.04376Q347.14062 348.5125 347.14062 347.6844Q347.14062 346.7 347.89062 346.15314Q348.64062 345.60626 350.01562 345.60626L351.0625 345.60626L351.0625 345.10626Q351.0625 344.54376 350.71875 344.21564Q350.39062 343.8719 349.71875 343.8719Q349.14062 343.8719 348.75 344.16876Q348.35938 344.45 348.35938 344.8719L347.26562 344.8719Q347.26562 344.3875 347.59375 343.95Q347.9375 343.5125 348.51562 343.2625Q349.09375 342.9969 349.78125 342.9969Q350.89062 342.9969 351.5 343.54376Q352.125 344.09064 352.15625 345.04376L352.15625 347.96564Q352.15625 348.84064 352.375 349.35626L352.375 349.45L351.23438 349.45ZM349.4375 348.6219Q349.95312 348.6219 350.40625 348.35626Q350.85938 348.09064 351.0625 347.66876L351.0625 346.3719L350.21875 346.3719Q348.21875 346.3719 348.21875 347.54376Q348.21875 348.04376 348.5625 348.34064Q348.90625 348.6219 349.4375 348.6219ZM355.79688 341.575L355.79688 343.10626L356.96875 343.10626L356.96875 343.95L355.79688 343.95L355.79688 347.8719Q355.79688 348.2625 355.95312 348.45Q356.10938 348.6375 356.48438 348.6375Q356.67188 348.6375 357.0 348.575L357.0 349.45Q356.57812 349.575 356.17188 349.575Q355.45312 349.575 355.07812 349.1375Q354.70312 348.6844 354.70312 347.8719L354.70312 343.95L353.54688 343.95L353.54688 343.10626L354.70312 343.10626L354.70312 341.575L355.79688 341.575ZM362.23438 348.825Q361.60938 349.575 360.375 349.575Q359.35938 349.575 358.82812 348.98126Q358.29688 348.3875 358.29688 347.23126L358.29688 343.10626L359.375 343.10626L359.375 347.2Q359.375 348.65314 360.54688 348.65314Q361.79688 348.65314 362.20312 347.71564L362.20312 343.10626L363.29688 343.10626L363.29688 349.45L362.26562 349.45L362.23438 348.825ZM368.39062 344.075Q368.14062 344.04376 367.85938 344.04376Q366.78125 344.04376 366.40625 344.95L366.40625 349.45L365.32812 349.45L365.32812 343.10626L366.375 343.10626L366.39062 343.84064Q366.92188 342.9969 367.90625 342.9969Q368.21875 342.9969 368.39062 343.075L368.39062 344.075ZM373.23438 349.45Q373.14062 349.2625 373.07812 348.77814Q372.32812 349.575 371.28125 349.575Q370.34375 349.575 369.73438 349.04376Q369.14062 348.5125 369.14062 347.6844Q369.14062 346.7 369.89062 346.15314Q370.64062 345.60626 372.01562 345.60626L373.0625 345.60626L373.0625 345.10626Q373.0625 344.54376 372.71875 344.21564Q372.39062 343.8719 371.71875 343.8719Q371.14062 343.8719 370.75 344.16876Q370.35938 344.45 370.35938 344.8719L369.26562 344.8719Q369.26562 344.3875 369.59375 343.95Q369.9375 343.5125 370.51562 343.2625Q371.09375 342.9969 371.78125 342.9969Q372.89062 342.9969 373.5 343.54376Q374.125 344.09064 374.15625 345.04376L374.15625 347.96564Q374.15625 348.84064 374.375 349.35626L374.375 349.45L373.23438 349.45ZM371.4375 348.6219Q371.95312 348.6219 372.40625 348.35626Q372.85938 348.09064 373.0625 347.66876L373.0625 346.3719L372.21875 346.3719Q370.21875 346.3719 370.21875 347.54376Q370.21875 348.04376 370.5625 348.34064Q370.90625 348.6219 371.4375 348.6219Z" fill-rule="nonzero"/><path fill="#424242" d="M24.206263 223.83958L24.909388 223.80833Q24.096888 223.12083 24.096888 221.93333Q24.096888 220.60521 25.112513 220.12083Q24.659388 219.80833 24.378138 219.30833Q24.096888 218.79271 24.096888 218.10521Q24.096888 216.01146 26.300013 215.98021L30.550013 215.98021L30.550013 217.05833L26.362513 217.05833Q25.690638 217.05833 25.362513 217.37083Q25.018763 217.68333 25.018763 218.41771Q25.018763 219.02708 25.378138 219.43333Q25.737513 219.82396 26.346888 219.88646L30.550013 219.88646L30.550013 220.96458L26.393763 220.96458Q25.018763 220.96458 25.018763 222.32396Q25.018763 223.38646 25.925013 223.77708L30.550013 223.77708L30.550013 224.87083L24.206263 224.87083L24.206263 223.83958ZM30.550013 209.94896Q30.362513 210.04271 29.878138 210.10521Q30.675013 210.85521 30.675013 211.90208Q30.675013 212.83958 30.143763 213.44896Q29.612513 214.04271 28.784388 214.04271Q27.800013 214.04271 27.253138 213.29271Q26.706263 212.54271 26.706263 211.16771L26.706263 210.12083L26.206263 210.12083Q25.643763 210.12083 25.315638 210.46458Q24.971888 210.79271 24.971888 211.46458Q24.971888 212.04271 25.268763 212.43333Q25.550013 212.82396 25.971888 212.82396L25.971888 213.91771Q25.487513 213.91771 25.050013 213.58958Q24.612513 213.24583 24.362513 212.66771Q24.096888 212.08958 24.096888 211.40208Q24.096888 210.29271 24.643763 209.68333Q25.190638 209.05833 26.143763 209.02708L29.065638 209.02708Q29.940638 209.02708 30.456263 208.80833L30.550013 208.80833L30.550013 209.94896ZM29.721888 211.74583Q29.721888 211.23021 29.456263 210.77708Q29.190638 210.32396 28.768763 210.12083L27.471888 210.12083L27.471888 210.96458Q27.471888 212.96458 28.643763 212.96458Q29.143763 212.96458 29.440638 212.62083Q29.721888 212.27708 29.721888 211.74583ZM27.331263 207.12083Q25.846888 207.12083 24.971888 206.43333Q24.096888 205.74583 24.096888 204.62083Q24.096888 203.46458 24.909388 202.80833L24.206263 202.76146L24.206263 201.76146L30.393763 201.76146Q31.628138 201.76146 32.33126 202.49583Q33.05001 203.23021 33.05001 204.44896Q33.05001 205.13646 32.753136 205.79271Q32.45626 206.44896 31.956263 206.79271L31.300013 206.23021Q32.159386 205.54271 32.159386 204.52708Q32.159386 203.74583 31.706263 203.30833Q31.268763 202.85521 30.456263 202.85521L29.909388 202.85521Q30.675013 203.51146 30.675013 204.63646Q30.675013 205.74583 29.784388 206.43333Q28.878138 207.12083 27.331263 207.12083ZM27.456263 206.02708Q28.518763 206.02708 29.143763 205.58958Q29.753138 205.15208 29.753138 204.35521Q29.753138 203.33958 28.815638 202.85521L25.925013 202.85521Q25.018763 203.35521 25.018763 204.35521Q25.018763 205.13646 25.628138 205.58958Q26.237513 206.02708 27.456263 206.02708ZM24.206263 198.83958L25.003138 198.80833Q24.096888 198.07396 24.096888 196.90208Q24.096888 194.88646 26.362513 194.87083L30.550013 194.87083L30.550013 195.96458L26.346888 195.96458Q25.675013 195.96458 25.346888 196.27708Q25.018763 196.57396 25.018763 197.23021Q25.018763 197.76146 25.300013 198.16771Q25.581263 198.55833 26.034388 198.77708L30.550013 198.77708L30.550013 199.85521L24.206263 199.85521L24.206263 198.83958ZM30.675013 190.23021Q30.675013 191.52708 29.831263 192.33958Q28.971888 193.13646 27.550013 193.13646L27.362513 193.13646Q26.409388 193.13646 25.675013 192.77708Q24.925013 192.41771 24.518763 191.77708Q24.096888 191.12083 24.096888 190.37083Q24.096888 189.13646 24.909388 188.44896Q25.721888 187.76146 27.237513 187.76146L27.690638 187.76146L27.690638 192.05833Q28.628138 192.02708 29.206263 191.51146Q29.784388 190.98021 29.784388 190.16771Q29.784388 189.60521 29.550013 189.21458Q29.315638 188.80833 28.925013 188.49583L29.440638 187.83958Q30.675013 188.63646 30.675013 190.23021ZM24.987513 190.37083Q24.987513 191.02708 25.471888 191.48021Q25.940638 191.91771 26.800013 192.01146L26.800013 188.83958L26.721888 188.83958Q25.893763 188.88646 25.440638 189.29271Q24.987513 189.68333 24.987513 190.37083ZM22.675013 185.38646L24.206263 185.38646L24.206263 184.21458L25.050013 184.21458L25.050013 185.38646L28.971888 185.38646Q29.362513 185.38646 29.550013 185.23021Q29.737513 185.07396 29.737513 184.69896Q29.737513 184.51146 29.675013 184.18333L30.550013 184.18333Q30.675013 184.60521 30.675013 185.01146Q30.675013 185.73021 30.237513 186.10521Q29.784388 186.48021 28.971888 186.48021L25.050013 186.48021L25.050013 187.63646L24.206263 187.63646L24.206263 186.48021L22.675013 186.48021L22.675013 185.38646ZM28.956263 180.79271L24.206263 179.30833L24.206263 178.15208L31.534388 180.69896Q33.11251 181.29271 33.11251 182.57396L33.096886 182.79271L33.01876 183.18333L32.14376 183.18333L32.159386 182.90208Q32.159386 182.33958 31.940638 182.04271Q31.721888 181.73021 31.128138 181.52708L30.471888 181.29271L24.206263 183.55833L24.206263 182.37083L28.956263 180.79271ZM29.659388 175.83958L29.659388 172.13646L30.550013 172.13646L30.550013 177.16771L29.753138 177.16771L25.112513 173.66771L25.112513 177.12083L24.206263 177.12083L24.206263 172.30833L24.971888 172.30833L29.659388 175.83958ZM30.550013 166.94896Q30.362513 167.04271 29.878138 167.10521Q30.675013 167.85521 30.675013 168.90208Q30.675013 169.83958 30.143763 170.44896Q29.612513 171.04271 28.784388 171.04271Q27.800013 171.04271 27.253138 170.29271Q26.706263 169.54271 26.706263 168.16771L26.706263 167.12083L26.206263 167.12083Q25.643763 167.12083 25.315638 167.46458Q24.971888 167.79271 24.971888 168.46458Q24.971888 169.04271 25.268763 169.43333Q25.550013 169.82396 25.971888 169.82396L25.971888 170.91771Q25.487513 170.91771 25.050013 170.58958Q24.612513 170.24583 24.362513 169.66771Q24.096888 169.08958 24.096888 168.40208Q24.096888 167.29271 24.643763 166.68333Q25.190638 166.05833 26.143763 166.02708L29.065638 166.02708Q29.940638 166.02708 30.456263 165.80833L30.550013 165.80833L30.550013 166.94896ZM29.721888 168.74583Q29.721888 168.23021 29.456263 167.77708Q29.190638 167.32396 28.768763 167.12083L27.471888 167.12083L27.471888 167.96458Q27.471888 169.96458 28.643763 169.96458Q29.143763 169.96458 29.440638 169.62083Q29.721888 169.27708 29.721888 168.74583ZM29.784388 161.32396Q29.784388 160.74583 29.440638 160.30833Q29.081263 159.87083 28.550013 159.82396L28.550013 158.79271Q29.096888 158.82396 29.596888 159.18333Q30.081263 159.52708 30.378138 160.10521Q30.675013 160.66771 30.675013 161.32396Q30.675013 162.62083 29.815638 163.38646Q28.940638 164.13646 27.440638 164.13646L27.253138 164.13646Q26.331263 164.13646 25.612513 163.80833Q24.893763 163.46458 24.503138 162.83958Q24.096888 162.19896 24.096888 161.32396Q24.096888 160.26146 24.737513 159.55833Q25.362513 158.83958 26.393763 158.79271L26.393763 159.82396Q25.768763 159.87083 25.378138 160.29271Q24.987513 160.71458 24.987513 161.32396Q24.987513 162.15208 25.581263 162.60521Q26.175013 163.05833 27.300013 163.05833L27.503138 163.05833Q28.596888 163.05833 29.190638 162.60521Q29.784388 162.15208 29.784388 161.32396ZM24.206263 156.74583L31.284388 156.74583Q33.11251 156.74583 33.11251 158.40208Q33.11251 158.76146 33.003136 159.05833L32.14376 159.05833Q32.190636 158.87083 32.190636 158.57396Q32.190636 158.21458 31.987513 158.02708Q31.800013 157.82396 31.300013 157.82396L24.206263 157.82396L24.206263 156.74583ZM22.534388 157.93333Q22.268763 157.93333 22.081263 157.77708Q21.893763 157.62083 21.893763 157.30833Q21.893763 156.99583 22.081263 156.83958Q22.268763 156.66771 22.534388 156.66771Q22.784388 156.66771 22.971888 156.83958Q23.143763 156.99583 23.143763 157.30833Q23.143763 157.62083 22.971888 157.77708Q22.784388 157.93333 22.534388 157.93333ZM30.550013 150.94896Q30.362513 151.04271 29.878138 151.10521Q30.675013 151.85521 30.675013 152.90208Q30.675013 153.83958 30.143763 154.44896Q29.612513 155.04271 28.784388 155.04271Q27.800013 155.04271 27.253138 154.29271Q26.706263 153.54271 26.706263 152.16771L26.706263 151.12083L26.206263 151.12083Q25.643763 151.12083 25.315638 151.46458Q24.971888 151.79271 24.971888 152.46458Q24.971888 153.04271 25.268763 153.43333Q25.550013 153.82396 25.971888 153.82396L25.971888 154.91771Q25.487513 154.91771 25.050013 154.58958Q24.612513 154.24583 24.362513 153.66771Q24.096888 153.08958 24.096888 152.40208Q24.096888 151.29271 24.643763 150.68333Q25.190638 150.05833 26.143763 150.02708L29.065638 150.02708Q29.940638 150.02708 30.456263 149.80833L30.550013 149.80833L30.550013 150.94896ZM29.721888 152.74583Q29.721888 152.23021 29.456263 151.77708Q29.190638 151.32396 28.768763 151.12083L27.471888 151.12083L27.471888 151.96458Q27.471888 153.96458 28.643763 153.96458Q29.143763 153.96458 29.440638 153.62083Q29.721888 153.27708 29.721888 152.74583Z" fill-rule="nonzero"/><path fill="#757575" d="M57.6125 299.3094Q57.6125 301.21564 56.95625 302.15314Q56.315624 303.075 54.925 303.075Q53.565624 303.075 52.909374 302.16876Q52.253124 301.2625 52.221874 299.45L52.221874 298.0125Q52.221874 296.1219 52.8625 295.21564Q53.51875 294.29376 54.909374 294.29376Q56.284374 294.29376 56.940624 295.1844Q57.596874 296.0594 57.6125 297.90314L57.6125 299.3094ZM56.51875 297.825Q56.51875 296.45 56.128124 295.825Q55.753124 295.1844 54.909374 295.1844Q54.08125 295.1844 53.690624 295.825Q53.315624 296.45 53.315624 297.7469L53.315624 299.48126Q53.315624 300.85626 53.70625 301.52814Q54.1125 302.1844 54.925 302.1844Q55.721874 302.1844 56.1125 301.5594Q56.503124 300.9344 56.51875 299.60626L56.51875 297.825ZM59.39375 302.3875Q59.39375 302.10626 59.55 301.91876Q59.721874 301.73126 60.05 301.73126Q60.39375 301.73126 60.565624 301.91876Q60.7375 302.10626 60.7375 302.3875Q60.7375 302.65314 60.565624 302.84064Q60.39375 303.0125 60.05 303.0125Q59.721874 303.0125 59.55 302.84064Q59.39375 302.65314 59.39375 302.3875ZM67.6125 299.3094Q67.6125 301.21564 66.95625 302.15314Q66.31563 303.075 64.925 303.075Q63.565624 303.075 62.909374 302.16876Q62.253124 301.2625 62.221874 299.45L62.221874 298.0125Q62.221874 296.1219 62.8625 295.21564Q63.51875 294.29376 64.90938 294.29376Q66.28438 294.29376 66.94063 295.1844Q67.59688 296.0594 67.6125 297.90314L67.6125 299.3094ZM66.51875 297.825Q66.51875 296.45 66.12813 295.825Q65.75313 295.1844 64.90938 295.1844Q64.08125 295.1844 63.690624 295.825Q63.315624 296.45 63.315624 297.7469L63.315624 299.48126Q63.315624 300.85626 63.70625 301.52814Q64.1125 302.1844 64.925 302.1844Q65.72188 302.1844 66.1125 301.5594Q66.50313 300.9344 66.51875 299.60626L66.51875 297.825ZM74.6125 299.3094Q74.6125 301.21564 73.95625 302.15314Q73.31563 303.075 71.925 303.075Q70.56563 303.075 69.90938 302.16876Q69.25313 301.2625 69.22188 299.45L69.22188 298.0125Q69.22188 296.1219 69.8625 295.21564Q70.51875 294.29376 71.90938 294.29376Q73.28438 294.29376 73.94063 295.1844Q74.59688 296.0594 74.6125 297.90314L74.6125 299.3094ZM73.51875 297.825Q73.51875 296.45 73.12813 295.825Q72.75313 295.1844 71.90938 295.1844Q71.08125 295.1844 70.69063 295.825Q70.31563 296.45 70.31563 297.7469L70.31563 299.48126Q70.31563 300.85626 70.70625 301.52814Q71.1125 302.1844 71.925 302.1844Q72.72188 302.1844 73.1125 301.5594Q73.50313 300.9344 73.51875 299.60626L73.51875 297.825ZM81.6125 299.3094Q81.6125 301.21564 80.95625 302.15314Q80.31563 303.075 78.925 303.075Q77.56563 303.075 76.90938 302.16876Q76.25313 301.2625 76.22188 299.45L76.22188 298.0125Q76.22188 296.1219 76.8625 295.21564Q77.51875 294.29376 78.90938 294.29376Q80.28438 294.29376 80.94063 295.1844Q81.59688 296.0594 81.6125 297.90314L81.6125 299.3094ZM80.51875 297.825Q80.51875 296.45 80.12813 295.825Q79.75313 295.1844 78.90938 295.1844Q78.08125 295.1844 77.69063 295.825Q77.31563 296.45 77.31563 297.7469L77.31563 299.48126Q77.31563 300.85626 77.70625 301.52814Q78.1125 302.1844 78.925 302.1844Q79.72188 302.1844 80.1125 301.5594Q80.50313 300.9344 80.51875 299.60626L80.51875 297.825ZM88.6125 299.3094Q88.6125 301.21564 87.95625 302.15314Q87.31563 303.075 85.925 303.075Q84.56563 303.075 83.90938 302.16876Q83.25313 301.2625 83.22188 299.45L83.22188 298.0125Q83.22188 296.1219 83.8625 295.21564Q84.51875 294.29376 85.90938 294.29376Q87.28438 294.29376 87.94063 295.1844Q88.59688 296.0594 88.6125 297.90314L88.6125 299.3094ZM87.51875 297.825Q87.51875 296.45 87.12813 295.825Q86.75313 295.1844 85.90938 295.1844Q85.08125 295.1844 84.69063 295.825Q84.31563 296.45 84.31563 297.7469L84.31563 299.48126Q84.31563 300.85626 84.70625 301.52814Q85.1125 302.1844 85.925 302.1844Q86.72188 302.1844 87.1125 301.5594Q87.50313 300.9344 87.51875 299.60626L87.51875 297.825ZM95.6125 299.3094Q95.6125 301.21564 94.95625 302.15314Q94.31563 303.075 92.925 303.075Q91.56563 303.075 90.90938 302.16876Q90.25313 301.2625 90.22188 299.45L90.22188 298.0125Q90.22188 296.1219 90.8625 295.21564Q91.51875 294.29376 92.90938 294.29376Q94.28438 294.29376 94.94063 295.1844Q95.59688 296.0594 95.6125 297.90314L95.6125 299.3094ZM94.51875 297.825Q94.51875 296.45 94.12813 295.825Q93.75313 295.1844 92.90938 295.1844Q92.08125 295.1844 91.69063 295.825Q91.31563 296.45 91.31563 297.7469L91.31563 299.48126Q91.31563 300.85626 91.70625 301.52814Q92.1125 302.1844 92.925 302.1844Q93.72188 302.1844 94.1125 301.5594Q94.50313 300.9344 94.51875 299.60626L94.51875 297.825Z" fill-rule="nonzero"/><path fill="#757575" d="M57.6125 240.30104Q57.6125 242.20729 56.95625 243.14479Q56.315624 244.06667 54.925 244.06667Q53.565624 244.06667 52.909374 243.16042Q52.253124 242.25417 52.221874 240.44167L52.221874 239.00417Q52.221874 237.11354 52.8625 236.20729Q53.51875 235.28542 54.909374 235.28542Q56.284374 235.28542 56.940624 236.17604Q57.596874 237.05104 57.6125 238.89479L57.6125 240.30104ZM56.51875 238.81667Q56.51875 237.44167 56.128124 236.81667Q55.753124 236.17604 54.909374 236.17604Q54.08125 236.17604 53.690624 236.81667Q53.315624 237.44167 53.315624 238.73854L53.315624 240.47292Q53.315624 241.84792 53.70625 242.51979Q54.1125 243.17604 54.925 243.17604Q55.721874 243.17604 56.1125 242.55104Q56.503124 241.92604 56.51875 240.59792L56.51875 238.81667ZM59.39375 243.37917Q59.39375 243.09792 59.55 242.91042Q59.721874 242.72292 60.05 242.72292Q60.39375 242.72292 60.565624 242.91042Q60.7375 243.09792 60.7375 243.37917Q60.7375 243.64479 60.565624 243.83229Q60.39375 244.00417 60.05 244.00417Q59.721874 244.00417 59.55 243.83229Q59.39375 243.64479 59.39375 243.37917ZM67.84688 243.94167L62.253124 243.94167L62.253124 243.16042L65.20625 239.87917Q65.8625 239.12917 66.1125 238.67604Q66.3625 238.20729 66.3625 237.70729Q66.3625 237.03542 65.95625 236.61354Q65.56563 236.17604 64.87813 236.17604Q64.08125 236.17604 63.628124 236.64479Q63.175 237.09792 63.175 237.92604L62.096874 237.92604Q62.096874 236.73854 62.846874 236.01979Q63.6125 235.28542 64.87813 235.28542Q66.08125 235.28542 66.76875 235.91042Q67.45625 236.53542 67.45625 237.58229Q67.45625 238.83229 65.84688 240.58229L63.565624 243.05104L67.84688 243.05104L67.84688 243.94167ZM69.75313 239.66042L70.19063 235.41042L74.56563 235.41042L74.56563 236.41042L71.1125 236.41042L70.84688 238.73854Q71.4875 238.36354 72.28438 238.36354Q73.44063 238.36354 74.12813 239.14479Q74.81563 239.91042 74.81563 241.22292Q74.81563 242.53542 74.09688 243.30104Q73.39375 244.06667 72.1125 244.06667Q70.9875 244.06667 70.26875 243.44167Q69.55 242.80104 69.45625 241.69167L70.47188 241.69167Q70.58125 242.42604 71.00313 242.80104Q71.425 243.17604 72.1125 243.17604Q72.8625 243.17604 73.3 242.66042Q73.7375 242.14479 73.7375 241.23854Q73.7375 240.37917 73.26875 239.86354Q72.8 239.34792 72.01875 239.34792Q71.31563 239.34792 70.90938 239.64479L70.62813 239.87917L69.75313 239.66042ZM81.6125 240.30104Q81.6125 242.20729 80.95625 243.14479Q80.31563 244.06667 78.925 244.06667Q77.56563 244.06667 76.90938 243.16042Q76.25313 242.25417 76.22188 240.44167L76.22188 239.00417Q76.22188 237.11354 76.8625 236.20729Q77.51875 235.28542 78.90938 235.28542Q80.28438 235.28542 80.94063 236.17604Q81.59688 237.05104 81.6125 238.89479L81.6125 240.30104ZM80.51875 238.81667Q80.51875 237.44167 80.12813 236.81667Q79.75313 236.17604 78.90938 236.17604Q78.08125 236.17604 77.69063 236.81667Q77.31563 237.44167 77.31563 238.73854L77.31563 240.47292Q77.31563 241.84792 77.70625 242.51979Q78.1125 243.17604 78.925 243.17604Q79.72188 243.17604 80.1125 242.55104Q80.50313 241.92604 80.51875 240.59792L80.51875 238.81667ZM88.6125 240.30104Q88.6125 242.20729 87.95625 243.14479Q87.31563 244.06667 85.925 244.06667Q84.56563 244.06667 83.90938 243.16042Q83.25313 242.25417 83.22188 240.44167L83.22188 239.00417Q83.22188 237.11354 83.8625 236.20729Q84.51875 235.28542 85.90938 235.28542Q87.28438 235.28542 87.94063 236.17604Q88.59688 237.05104 88.6125 238.89479L88.6125 240.30104ZM87.51875 238.81667Q87.51875 237.44167 87.12813 236.81667Q86.75313 236.17604 85.90938 236.17604Q85.08125 236.17604 84.69063 236.81667Q84.31563 237.44167 84.31563 238.73854L84.31563 240.47292Q84.31563 241.84792 84.70625 242.51979Q85.1125 243.17604 85.925 243.17604Q86.72188 243.17604 87.1125 242.55104Q87.50313 241.92604 87.51875 240.59792L87.51875 238.81667ZM95.6125 240.30104Q95.6125 242.20729 94.95625 243.14479Q94.31563 244.06667 92.925 244.06667Q91.56563 244.06667 90.90938 243.16042Q90.25313 242.25417 90.22188 240.44167L90.22188 239.00417Q90.22188 237.11354 90.8625 236.20729Q91.51875 235.28542 92.90938 235.28542Q94.28438 235.28542 94.94063 236.17604Q95.59688 237.05104 95.6125 238.89479L95.6125 240.30104ZM94.51875 238.81667Q94.51875 237.44167 94.12813 236.81667Q93.75313 236.17604 92.90938 236.17604Q92.08125 236.17604 91.69063 236.81667Q91.31563 237.44167 91.31563 238.73854L91.31563 240.47292Q91.31563 241.84792 91.70625 242.51979Q92.1125 243.17604 92.925 243.17604Q93.72188 243.17604 94.1125 242.55104Q94.50313 241.92604 94.51875 240.59792L94.51875 238.81667Z" fill-rule="nonzero"/><path fill="#757575" d="M57.6125 181.29271Q57.6125 183.19896 56.95625 184.13646Q56.315624 185.05833 54.925 185.05833Q53.565624 185.05833 52.909374 184.15208Q52.253124 183.24583 52.221874 181.43333L52.221874 179.99583Q52.221874 178.10521 52.8625 177.19896Q53.51875 176.27708 54.909374 176.27708Q56.284374 176.27708 56.940624 177.16771Q57.596874 178.04271 57.6125 179.88646L57.6125 181.29271ZM56.51875 179.80833Q56.51875 178.43333 56.128124 177.80833Q55.753124 177.16771 54.909374 177.16771Q54.08125 177.16771 53.690624 177.80833Q53.315624 178.43333 53.315624 179.73021L53.315624 181.46458Q53.315624 182.83958 53.70625 183.51146Q54.1125 184.16771 54.925 184.16771Q55.721874 184.16771 56.1125 183.54271Q56.503124 182.91771 56.51875 181.58958L56.51875 179.80833ZM59.39375 184.37083Q59.39375 184.08958 59.55 183.90208Q59.721874 183.71458 60.05 183.71458Q60.39375 183.71458 60.565624 183.90208Q60.7375 184.08958 60.7375 184.37083Q60.7375 184.63646 60.565624 184.82396Q60.39375 184.99583 60.05 184.99583Q59.721874 184.99583 59.55 184.82396Q59.39375 184.63646 59.39375 184.37083ZM62.753124 180.65208L63.190624 176.40208L67.56563 176.40208L67.56563 177.40208L64.1125 177.40208L63.846874 179.73021Q64.4875 179.35521 65.28438 179.35521Q66.44063 179.35521 67.12813 180.13646Q67.81563 180.90208 67.81563 182.21458Q67.81563 183.52708 67.09688 184.29271Q66.39375 185.05833 65.1125 185.05833Q63.9875 185.05833 63.26875 184.43333Q62.55 183.79271 62.45625 182.68333L63.471874 182.68333Q63.58125 183.41771 64.00313 183.79271Q64.425 184.16771 65.1125 184.16771Q65.8625 184.16771 66.3 183.65208Q66.7375 183.13646 66.7375 182.23021Q66.7375 181.37083 66.26875 180.85521Q65.8 180.33958 65.01875 180.33958Q64.31563 180.33958 63.909374 180.63646L63.628124 180.87083L62.753124 180.65208ZM74.6125 181.29271Q74.6125 183.19896 73.95625 184.13646Q73.31563 185.05833 71.925 185.05833Q70.56563 185.05833 69.90938 184.15208Q69.25313 183.24583 69.22188 181.43333L69.22188 179.99583Q69.22188 178.10521 69.8625 177.19896Q70.51875 176.27708 71.90938 176.27708Q73.28438 176.27708 73.94063 177.16771Q74.59688 178.04271 74.6125 179.88646L74.6125 181.29271ZM73.51875 179.80833Q73.51875 178.43333 73.12813 177.80833Q72.75313 177.16771 71.90938 177.16771Q71.08125 177.16771 70.69063 177.80833Q70.31563 178.43333 70.31563 179.73021L70.31563 181.46458Q70.31563 182.83958 70.70625 183.51146Q71.1125 184.16771 71.925 184.16771Q72.72188 184.16771 73.1125 183.54271Q73.50313 182.91771 73.51875 181.58958L73.51875 179.80833ZM81.6125 181.29271Q81.6125 183.19896 80.95625 184.13646Q80.31563 185.05833 78.925 185.05833Q77.56563 185.05833 76.90938 184.15208Q76.25313 183.24583 76.22188 181.43333L76.22188 179.99583Q76.22188 178.10521 76.8625 177.19896Q77.51875 176.27708 78.90938 176.27708Q80.28438 176.27708 80.94063 177.16771Q81.59688 178.04271 81.6125 179.88646L81.6125 181.29271ZM80.51875 179.80833Q80.51875 178.43333 80.12813 177.80833Q79.75313 177.16771 78.90938 177.16771Q78.08125 177.16771 77.69063 177.80833Q77.31563 178.43333 77.31563 179.73021L77.31563 181.46458Q77.31563 182.83958 77.70625 183.51146Q78.1125 184.16771 78.925 184.16771Q79.72188 184.16771 80.1125 183.54271Q80.50313 182.91771 80.51875 181.58958L80.51875 179.80833ZM88.6125 181.29271Q88.6125 183.19896 87.95625 184.13646Q87.31563 185.05833 85.925 185.05833Q84.56563 185.05833 83.90938 184.15208Q83.25313 183.24583 83.22188 181.43333L83.22188 179.99583Q83.22188 178.10521 83.8625 177.19896Q84.51875 176.27708 85.90938 176.27708Q87.28438 176.27708 87.94063 177.16771Q88.59688 178.04271 88.6125 179.88646L88.6125 181.29271ZM87.51875 179.80833Q87.51875 178.43333 87.12813 177.80833Q86.75313 177.16771 85.90938 177.16771Q85.08125 177.16771 84.69063 177.80833Q84.31563 178.43333 84.31563 179.73021L84.31563 181.46458Q84.31563 182.83958 84.70625 183.51146Q85.1125 184.16771 85.925 184.16771Q86.72188 184.16771 87.1125 183.54271Q87.50313 182.91771 87.51875 181.58958L87.51875 179.80833ZM95.6125 181.29271Q95.6125 183.19896 94.95625 184.13646Q94.31563 185.05833 92.925 185.05833Q91.56563 185.05833 90.90938 184.15208Q90.25313 183.24583 90.22188 181.43333L90.22188 179.99583Q90.22188 178.10521 90.8625 177.19896Q91.51875 176.27708 92.90938 176.27708Q94.28438 176.27708 94.94063 177.16771Q95.59688 178.04271 95.6125 179.88646L95.6125 181.29271ZM94.51875 179.80833Q94.51875 178.43333 94.12813 177.80833Q93.75313 177.16771 92.90938 177.16771Q92.08125 177.16771 91.69063 177.80833Q91.31563 178.43333 91.31563 179.73021L91.31563 181.46458Q91.31563 182.83958 91.70625 183.51146Q92.1125 184.16771 92.925 184.16771Q93.72188 184.16771 94.1125 183.54271Q94.50313 182.91771 94.51875 181.58958L94.51875 179.80833Z" fill-rule="nonzero"/><path fill="#757575" d="M57.6125 122.28438Q57.6125 124.19063 56.95625 125.12813Q56.315624 126.05 54.925 126.05Q53.565624 126.05 52.909374 125.14375Q52.253124 124.2375 52.221874 122.425L52.221874 120.9875Q52.221874 119.09688 52.8625 118.19063Q53.51875 117.26875 54.909374 117.26875Q56.284374 117.26875 56.940624 118.15938Q57.596874 119.03438 57.6125 120.87813L57.6125 122.28438ZM56.51875 120.8Q56.51875 119.425 56.128124 118.8Q55.753124 118.15938 54.909374 118.15938Q54.08125 118.15938 53.690624 118.8Q53.315624 119.425 53.315624 120.72188L53.315624 122.45625Q53.315624 123.83125 53.70625 124.50313Q54.1125 125.15938 54.925 125.15938Q55.721874 125.15938 56.1125 124.53438Q56.503124 123.90938 56.51875 122.58125L56.51875 120.8ZM59.39375 125.3625Q59.39375 125.08125 59.55 124.89375Q59.721874 124.70625 60.05 124.70625Q60.39375 124.70625 60.565624 124.89375Q60.7375 125.08125 60.7375 125.3625Q60.7375 125.62813 60.565624 125.81563Q60.39375 125.9875 60.05 125.9875Q59.721874 125.9875 59.55 125.81563Q59.39375 125.62813 59.39375 125.3625ZM67.76875 118.00313L64.2375 125.925L63.096874 125.925L66.6125 118.28438L62.003124 118.28438L62.003124 117.39375L67.76875 117.39375L67.76875 118.00313ZM69.75313 121.64375L70.19063 117.39375L74.56563 117.39375L74.56563 118.39375L71.1125 118.39375L70.84688 120.72188Q71.4875 120.34688 72.28438 120.34688Q73.44063 120.34688 74.12813 121.12813Q74.81563 121.89375 74.81563 123.20625Q74.81563 124.51875 74.09688 125.28438Q73.39375 126.05 72.1125 126.05Q70.9875 126.05 70.26875 125.425Q69.55 124.78438 69.45625 123.675L70.47188 123.675Q70.58125 124.40938 71.00313 124.78438Q71.425 125.15938 72.1125 125.15938Q72.8625 125.15938 73.3 124.64375Q73.7375 124.12813 73.7375 123.22188Q73.7375 122.3625 73.26875 121.84688Q72.8 121.33125 72.01875 121.33125Q71.31563 121.33125 70.90938 121.62813L70.62813 121.8625L69.75313 121.64375ZM81.6125 122.28438Q81.6125 124.19063 80.95625 125.12813Q80.31563 126.05 78.925 126.05Q77.56563 126.05 76.90938 125.14375Q76.25313 124.2375 76.22188 122.425L76.22188 120.9875Q76.22188 119.09688 76.8625 118.19063Q77.51875 117.26875 78.90938 117.26875Q80.28438 117.26875 80.94063 118.15938Q81.59688 119.03438 81.6125 120.87813L81.6125 122.28438ZM80.51875 120.8Q80.51875 119.425 80.12813 118.8Q79.75313 118.15938 78.90938 118.15938Q78.08125 118.15938 77.69063 118.8Q77.31563 119.425 77.31563 120.72188L77.31563 122.45625Q77.31563 123.83125 77.70625 124.50313Q78.1125 125.15938 78.925 125.15938Q79.72188 125.15938 80.1125 124.53438Q80.50313 123.90938 80.51875 122.58125L80.51875 120.8ZM88.6125 122.28438Q88.6125 124.19063 87.95625 125.12813Q87.31563 126.05 85.925 126.05Q84.56563 126.05 83.90938 125.14375Q83.25313 124.2375 83.22188 122.425L83.22188 120.9875Q83.22188 119.09688 83.8625 118.19063Q84.51875 117.26875 85.90938 117.26875Q87.28438 117.26875 87.94063 118.15938Q88.59688 119.03438 88.6125 120.87813L88.6125 122.28438ZM87.51875 120.8Q87.51875 119.425 87.12813 118.8Q86.75313 118.15938 85.90938 118.15938Q85.08125 118.15938 84.69063 118.8Q84.31563 119.425 84.31563 120.72188L84.31563 122.45625Q84.31563 123.83125 84.70625 124.50313Q85.1125 125.15938 85.925 125.15938Q86.72188 125.15938 87.1125 124.53438Q87.50313 123.90938 87.51875 122.58125L87.51875 120.8ZM95.6125 122.28438Q95.6125 124.19063 94.95625 125.12813Q94.31563 126.05 92.925 126.05Q91.56563 126.05 90.90938 125.14375Q90.25313 124.2375 90.22188 122.425L90.22188 120.9875Q90.22188 119.09688 90.8625 118.19063Q91.51875 117.26875 92.90938 117.26875Q94.28438 117.26875 94.94063 118.15938Q95.59688 119.03438 95.6125 120.87813L95.6125 122.28438ZM94.51875 120.8Q94.51875 119.425 94.12813 118.8Q93.75313 118.15938 92.90938 118.15938Q92.08125 118.15938 91.69063 118.8Q91.31563 119.425 91.31563 120.72188L91.31563 122.45625Q91.31563 123.83125 91.70625 124.50313Q92.1125 125.15938 92.925 125.15938Q93.72188 125.15938 94.1125 124.53438Q94.50313 123.90938 94.51875 122.58125L94.51875 120.8Z" fill-rule="nonzero"/><path fill="#757575" d="M55.815624 66.916664L54.7375 66.916664L54.7375 59.697914L52.55 60.49479L52.55 59.510414L55.659374 58.33854L55.815624 58.33854L55.815624 66.916664ZM59.39375 66.354164Q59.39375 66.072914 59.55 65.885414Q59.721874 65.697914 60.05 65.697914Q60.39375 65.697914 60.565624 65.885414Q60.7375 66.072914 60.7375 66.354164Q60.7375 66.61979 60.565624 66.80729Q60.39375 66.979164 60.05 66.979164Q59.721874 66.979164 59.55 66.80729Q59.39375 66.61979 59.39375 66.354164ZM67.6125 63.27604Q67.6125 65.18229 66.95625 66.11979Q66.31563 67.041664 64.925 67.041664Q63.565624 67.041664 62.909374 66.135414Q62.253124 65.229164 62.221874 63.416664L62.221874 61.979164Q62.221874 60.08854 62.8625 59.18229Q63.51875 58.260414 64.90938 58.260414Q66.28438 58.260414 66.94063 59.15104Q67.59688 60.02604 67.6125 61.86979L67.6125 63.27604ZM66.51875 61.791664Q66.51875 60.416664 66.12813 59.791664Q65.75313 59.15104 64.90938 59.15104Q64.08125 59.15104 63.690624 59.791664Q63.315624 60.416664 63.315624 61.71354L63.315624 63.447914Q63.315624 64.822914 63.70625 65.49479Q64.1125 66.15104 64.925 66.15104Q65.72188 66.15104 66.1125 65.52604Q66.50313 64.90104 66.51875 63.572914L66.51875 61.791664ZM74.6125 63.27604Q74.6125 65.18229 73.95625 66.11979Q73.31563 67.041664 71.925 67.041664Q70.56563 67.041664 69.90938 66.135414Q69.25313 65.229164 69.22188 63.416664L69.22188 61.979164Q69.22188 60.08854 69.8625 59.18229Q70.51875 58.260414 71.90938 58.260414Q73.28438 58.260414 73.94063 59.15104Q74.59688 60.02604 74.6125 61.86979L74.6125 63.27604ZM73.51875 61.791664Q73.51875 60.416664 73.12813 59.791664Q72.75313 59.15104 71.90938 59.15104Q71.08125 59.15104 70.69063 59.791664Q70.31563 60.416664 70.31563 61.71354L70.31563 63.447914Q70.31563 64.822914 70.70625 65.49479Q71.1125 66.15104 71.925 66.15104Q72.72188 66.15104 73.1125 65.52604Q73.50313 64.90104 73.51875 63.572914L73.51875 61.791664ZM81.6125 63.27604Q81.6125 65.18229 80.95625 66.11979Q80.31563 67.041664 78.925 67.041664Q77.56563 67.041664 76.90938 66.135414Q76.25313 65.229164 76.22188 63.416664L76.22188 61.979164Q76.22188 60.08854 76.8625 59.18229Q77.51875 58.260414 78.90938 58.260414Q80.28438 58.260414 80.94063 59.15104Q81.59688 60.02604 81.6125 61.86979L81.6125 63.27604ZM80.51875 61.791664Q80.51875 60.416664 80.12813 59.791664Q79.75313 59.15104 78.90938 59.15104Q78.08125 59.15104 77.69063 59.791664Q77.31563 60.416664 77.31563 61.71354L77.31563 63.447914Q77.31563 64.822914 77.70625 65.49479Q78.1125 66.15104 78.925 66.15104Q79.72188 66.15104 80.1125 65.52604Q80.50313 64.90104 80.51875 63.572914L80.51875 61.791664ZM88.6125 63.27604Q88.6125 65.18229 87.95625 66.11979Q87.31563 67.041664 85.925 67.041664Q84.56563 67.041664 83.90938 66.135414Q83.25313 65.229164 83.22188 63.416664L83.22188 61.979164Q83.22188 60.08854 83.8625 59.18229Q84.51875 58.260414 85.90938 58.260414Q87.28438 58.260414 87.94063 59.15104Q88.59688 60.02604 88.6125 61.86979L88.6125 63.27604ZM87.51875 61.791664Q87.51875 60.416664 87.12813 59.791664Q86.75313 59.15104 85.90938 59.15104Q85.08125 59.15104 84.69063 59.791664Q84.31563 60.416664 84.31563 61.71354L84.31563 63.447914Q84.31563 64.822914 84.70625 65.49479Q85.1125 66.15104 85.925 66.15104Q86.72188 66.15104 87.1125 65.52604Q87.50313 64.90104 87.51875 63.572914L87.51875 61.791664ZM95.6125 63.27604Q95.6125 65.18229 94.95625 66.11979Q94.31563 67.041664 92.925 67.041664Q91.56563 67.041664 90.90938 66.135414Q90.25313 65.229164 90.22188 63.416664L90.22188 61.979164Q90.22188 60.08854 90.8625 59.18229Q91.51875 58.260414 92.90938 58.260414Q94.28438 58.260414 94.94063 59.15104Q95.59688 60.02604 95.6125 61.86979L95.6125 63.27604ZM94.51875 61.791664Q94.51875 60.416664 94.12813 59.791664Q93.75313 59.15104 92.90938 59.15104Q92.08125 59.15104 91.69063 59.791664Q91.31563 60.416664 91.31563 61.71354L91.31563 63.447914Q91.31563 64.822914 91.70625 65.49479Q92.1125 66.15104 92.925 66.15104Q93.72188 66.15104 94.1125 65.52604Q94.50313 64.90104 94.51875 63.572914L94.51875 61.791664Z" fill-rule="nonzero"/><path fill="#757575" d="M149.23045 312.8094Q149.23045 314.71564 148.5742 315.65314Q147.93358 316.575 146.54295 316.575Q145.18358 316.575 144.52733 315.66876Q143.87108 314.7625 143.83983 312.95L143.83983 311.5125Q143.83983 309.6219 144.48045 308.71564Q145.1367 307.79376 146.52733 307.79376Q147.90233 307.79376 148.55858 308.6844Q149.21483 309.5594 149.23045 311.40314L149.23045 312.8094ZM148.1367 311.325Q148.1367 309.95 147.74608 309.325Q147.37108 308.6844 146.52733 308.6844Q145.6992 308.6844 145.30858 309.325Q144.93358 309.95 144.93358 311.2469L144.93358 312.98126Q144.93358 314.35626 145.3242 315.02814Q145.73045 315.6844 146.54295 315.6844Q147.33983 315.6844 147.73045 315.0594Q148.12108 314.4344 148.1367 313.10626L148.1367 311.325ZM151.0117 315.8875Q151.0117 315.60626 151.16795 315.41876Q151.33983 315.23126 151.66795 315.23126Q152.0117 315.23126 152.18358 315.41876Q152.35545 315.60626 152.35545 315.8875Q152.35545 316.15314 152.18358 316.34064Q152.0117 316.5125 151.66795 316.5125Q151.33983 316.5125 151.16795 316.34064Q151.0117 316.15314 151.0117 315.8875ZM154.37108 312.16876L154.80858 307.91876L159.18358 307.91876L159.18358 308.91876L155.73045 308.91876L155.46483 311.2469Q156.10545 310.8719 156.90233 310.8719Q158.05858 310.8719 158.74608 311.65314Q159.43358 312.41876 159.43358 313.73126Q159.43358 315.04376 158.71483 315.8094Q158.0117 316.575 156.73045 316.575Q155.60545 316.575 154.8867 315.95Q154.16795 315.3094 154.0742 314.2L155.08983 314.2Q155.1992 314.9344 155.62108 315.3094Q156.04295 315.6844 156.73045 315.6844Q157.48045 315.6844 157.91795 315.16876Q158.35545 314.65314 158.35545 313.7469Q158.35545 312.8875 157.8867 312.3719Q157.41795 311.85626 156.6367 311.85626Q155.93358 311.85626 155.52733 312.15314L155.24608 312.3875L154.37108 312.16876Z" fill-rule="nonzero"/><path fill="#757575" d="M208.83101 316.45L207.75288 316.45L207.75288 309.23126L205.56538 310.02814L205.56538 309.04376L208.67476 307.8719L208.83101 307.8719L208.83101 316.45ZM212.40913 315.8875Q212.40913 315.60626 212.56538 315.41876Q212.73726 315.23126 213.06538 315.23126Q213.40913 315.23126 213.58101 315.41876Q213.75288 315.60626 213.75288 315.8875Q213.75288 316.15314 213.58101 316.34064Q213.40913 316.5125 213.06538 316.5125Q212.73726 316.5125 212.56538 316.34064Q212.40913 316.15314 212.40913 315.8875ZM220.62788 312.8094Q220.62788 314.71564 219.97163 315.65314Q219.33101 316.575 217.94038 316.575Q216.58101 316.575 215.92476 315.66876Q215.26851 314.7625 215.23726 312.95L215.23726 311.5125Q215.23726 309.6219 215.87788 308.71564Q216.53413 307.79376 217.92476 307.79376Q219.29976 307.79376 219.95601 308.6844Q220.61226 309.5594 220.62788 311.40314L220.62788 312.8094ZM219.53413 311.325Q219.53413 309.95 219.14351 309.325Q218.76851 308.6844 217.92476 308.6844Q217.09663 308.6844 216.70601 309.325Q216.33101 309.95 216.33101 311.2469L216.33101 312.98126Q216.33101 314.35626 216.72163 315.02814Q217.12788 315.6844 217.94038 315.6844Q218.73726 315.6844 219.12788 315.0594Q219.51851 314.4344 219.53413 313.10626L219.53413 311.325Z" fill-rule="nonzero"/><path fill="#757575" d="M270.22845 316.45L269.15033 316.45L269.15033 309.23126L266.96283 310.02814L266.96283 309.04376L270.0722 307.8719L270.22845 307.8719L270.22845 316.45ZM273.80658 315.8875Q273.80658 315.60626 273.96283 315.41876Q274.1347 315.23126 274.46283 315.23126Q274.80658 315.23126 274.97845 315.41876Q275.15033 315.60626 275.15033 315.8875Q275.15033 316.15314 274.97845 316.34064Q274.80658 316.5125 274.46283 316.5125Q274.1347 316.5125 273.96283 316.34064Q273.80658 316.15314 273.80658 315.8875ZM277.16595 312.16876L277.60345 307.91876L281.97845 307.91876L281.97845 308.91876L278.52533 308.91876L278.2597 311.2469Q278.90033 310.8719 279.6972 310.8719Q280.85345 310.8719 281.54095 311.65314Q282.22845 312.41876 282.22845 313.73126Q282.22845 315.04376 281.5097 315.8094Q280.80658 316.575 279.52533 316.575Q278.40033 316.575 277.68158 315.95Q276.96283 315.3094 276.86908 314.2L277.8847 314.2Q277.99408 314.9344 278.41595 315.3094Q278.83783 315.6844 279.52533 315.6844Q280.27533 315.6844 280.71283 315.16876Q281.15033 314.65314 281.15033 313.7469Q281.15033 312.8875 280.68158 312.3719Q280.21283 311.85626 279.43158 311.85626Q278.72845 311.85626 278.3222 312.15314L278.04095 312.3875L277.16595 312.16876Z" fill-rule="nonzero"/><path fill="#757575" d="M333.65714 316.45L328.0634 316.45L328.0634 315.66876L331.0165 312.3875Q331.67276 311.6375 331.92276 311.1844Q332.17276 310.71564 332.17276 310.21564Q332.17276 309.54376 331.7665 309.1219Q331.3759 308.6844 330.6884 308.6844Q329.8915 308.6844 329.4384 309.15314Q328.98526 309.60626 328.98526 310.4344L327.90714 310.4344Q327.90714 309.2469 328.65714 308.52814Q329.42276 307.79376 330.6884 307.79376Q331.8915 307.79376 332.579 308.41876Q333.2665 309.04376 333.2665 310.09064Q333.2665 311.34064 331.65714 313.09064L329.3759 315.5594L333.65714 315.5594L333.65714 316.45ZM335.204 315.8875Q335.204 315.60626 335.36026 315.41876Q335.53214 315.23126 335.86026 315.23126Q336.204 315.23126 336.3759 315.41876Q336.54776 315.60626 336.54776 315.8875Q336.54776 316.15314 336.3759 316.34064Q336.204 316.5125 335.86026 316.5125Q335.53214 316.5125 335.36026 316.34064Q335.204 316.15314 335.204 315.8875ZM343.42276 312.8094Q343.42276 314.71564 342.7665 315.65314Q342.1259 316.575 340.73526 316.575Q339.3759 316.575 338.71964 315.66876Q338.0634 314.7625 338.03214 312.95L338.03214 311.5125Q338.03214 309.6219 338.67276 308.71564Q339.329 307.79376 340.71964 307.79376Q342.09464 307.79376 342.7509 308.6844Q343.40714 309.5594 343.42276 311.40314L343.42276 312.8094ZM342.329 311.325Q342.329 309.95 341.9384 309.325Q341.5634 308.6844 340.71964 308.6844Q339.8915 308.6844 339.5009 309.325Q339.1259 309.95 339.1259 311.2469L339.1259 312.98126Q339.1259 314.35626 339.5165 315.02814Q339.92276 315.6844 340.73526 315.6844Q341.53214 315.6844 341.92276 315.0594Q342.3134 314.4344 342.329 313.10626L342.329 311.325Z" fill-rule="nonzero"/><path fill="#757575" d="M395.05457 316.45L389.46082 316.45L389.46082 315.66876L392.41394 312.3875Q393.0702 311.6375 393.3202 311.1844Q393.5702 310.71564 393.5702 310.21564Q393.5702 309.54376 393.16394 309.1219Q392.77332 308.6844 392.08582 308.6844Q391.28894 308.6844 390.83582 309.15314Q390.3827 309.60626 390.3827 310.4344L389.30457 310.4344Q389.30457 309.2469 390.05457 308.52814Q390.8202 307.79376 392.08582 307.79376Q393.28894 307.79376 393.97644 308.41876Q394.66394 309.04376 394.66394 310.09064Q394.66394 311.34064 393.05457 313.09064L390.77332 315.5594L395.05457 315.5594L395.05457 316.45ZM396.60144 315.8875Q396.60144 315.60626 396.7577 315.41876Q396.92957 315.23126 397.2577 315.23126Q397.60144 315.23126 397.77332 315.41876Q397.9452 315.60626 397.9452 315.8875Q397.9452 316.15314 397.77332 316.34064Q397.60144 316.5125 397.2577 316.5125Q396.92957 316.5125 396.7577 316.34064Q396.60144 316.15314 396.60144 315.8875ZM399.96082 312.16876L400.39832 307.91876L404.77332 307.91876L404.77332 308.91876L401.3202 308.91876L401.05457 311.2469Q401.6952 310.8719 402.49207 310.8719Q403.64832 310.8719 404.33582 311.65314Q405.02332 312.41876 405.02332 313.73126Q405.02332 315.04376 404.30457 315.8094Q403.60144 316.575 402.3202 316.575Q401.1952 316.575 400.47644 315.95Q399.7577 315.3094 399.66394 314.2L400.67957 314.2Q400.78894 314.9344 401.21082 315.3094Q401.6327 315.6844 402.3202 315.6844Q403.0702 315.6844 403.5077 315.16876Q403.9452 314.65314 403.9452 313.7469Q403.9452 312.8875 403.47644 312.3719Q403.0077 311.85626 402.22644 311.85626Q401.52332 311.85626 401.11707 312.15314L400.83582 312.3875L399.96082 312.16876Z" fill-rule="nonzero"/><path fill="#757575" d="M452.43637 311.65314L453.24887 311.65314Q454.03012 311.6375 454.46762 311.2469Q454.90512 310.85626 454.90512 310.1844Q454.90512 308.6844 453.40512 308.6844Q452.702 308.6844 452.28012 309.09064Q451.87387 309.4969 451.87387 310.15314L450.78012 310.15314Q450.78012 309.1375 451.5145 308.46564Q452.2645 307.79376 453.40512 307.79376Q454.60825 307.79376 455.29575 308.4344Q455.98325 309.075 455.98325 310.21564Q455.98325 310.77814 455.62387 311.29376Q455.2645 311.8094 454.6395 312.075Q455.34262 312.29376 455.71762 312.8094Q456.10825 313.325 456.10825 314.075Q456.10825 315.21564 455.35825 315.90314Q454.60825 316.575 453.40512 316.575Q452.21762 316.575 451.452 315.91876Q450.702 315.2625 450.702 314.2L451.79575 314.2Q451.79575 314.8719 452.23325 315.27814Q452.67075 315.6844 453.42075 315.6844Q454.202 315.6844 454.60825 315.27814Q455.03012 314.85626 455.03012 314.09064Q455.03012 313.35626 454.577 312.96564Q454.12387 312.5594 453.24887 312.54376L452.43637 312.54376L452.43637 311.65314ZM457.99887 315.8875Q457.99887 315.60626 458.15512 315.41876Q458.327 315.23126 458.65512 315.23126Q458.99887 315.23126 459.17075 315.41876Q459.34262 315.60626 459.34262 315.8875Q459.34262 316.15314 459.17075 316.34064Q458.99887 316.5125 458.65512 316.5125Q458.327 316.5125 458.15512 316.34064Q457.99887 316.15314 457.99887 315.8875ZM466.21762 312.8094Q466.21762 314.71564 465.56137 315.65314Q464.92075 316.575 463.53012 316.575Q462.17075 316.575 461.5145 315.66876Q460.85825 314.7625 460.827 312.95L460.827 311.5125Q460.827 309.6219 461.46762 308.71564Q462.12387 307.79376 463.5145 307.79376Q464.8895 307.79376 465.54575 308.6844Q466.202 309.5594 466.21762 311.40314L466.21762 312.8094ZM465.12387 311.325Q465.12387 309.95 464.73325 309.325Q464.35825 308.6844 463.5145 308.6844Q462.68637 308.6844 462.29575 309.325Q461.92075 309.95 461.92075 311.2469L461.92075 312.98126Q461.92075 314.35626 462.31137 315.02814Q462.71762 315.6844 463.53012 315.6844Q464.327 315.6844 464.71762 315.0594Q465.10825 314.4344 465.12387 313.10626L465.12387 311.325Z" fill-rule="nonzero"/><path fill="#757575" d="M513.8338 311.65314L514.6463 311.65314Q515.42755 311.6375 515.86505 311.2469Q516.30255 310.85626 516.30255 310.1844Q516.30255 308.6844 514.80255 308.6844Q514.0994 308.6844 513.67755 309.09064Q513.2713 309.4969 513.2713 310.15314L512.17755 310.15314Q512.17755 309.1375 512.9119 308.46564Q513.6619 307.79376 514.80255 307.79376Q516.0057 307.79376 516.6932 308.4344Q517.3807 309.075 517.3807 310.21564Q517.3807 310.77814 517.0213 311.29376Q516.6619 311.8094 516.0369 312.075Q516.74005 312.29376 517.11505 312.8094Q517.5057 313.325 517.5057 314.075Q517.5057 315.21564 516.7557 315.90314Q516.0057 316.575 514.80255 316.575Q513.61505 316.575 512.8494 315.91876Q512.0994 315.2625 512.0994 314.2L513.1932 314.2Q513.1932 314.8719 513.6307 315.27814Q514.0682 315.6844 514.8182 315.6844Q515.5994 315.6844 516.0057 315.27814Q516.42755 314.85626 516.42755 314.09064Q516.42755 313.35626 515.9744 312.96564Q515.5213 312.5594 514.6463 312.54376L513.8338 312.54376L513.8338 311.65314ZM519.3963 315.8875Q519.3963 315.60626 519.55255 315.41876Q519.7244 315.23126 520.05255 315.23126Q520.3963 315.23126 520.5682 315.41876Q520.74005 315.60626 520.74005 315.8875Q520.74005 316.15314 520.5682 316.34064Q520.3963 316.5125 520.05255 316.5125Q519.7244 316.5125 519.55255 316.34064Q519.3963 316.15314 519.3963 315.8875ZM522.7557 312.16876L523.1932 307.91876L527.5682 307.91876L527.5682 308.91876L524.11505 308.91876L523.8494 311.2469Q524.49005 310.8719 525.2869 310.8719Q526.4432 310.8719 527.1307 311.65314Q527.8182 312.41876 527.8182 313.73126Q527.8182 315.04376 527.0994 315.8094Q526.3963 316.575 525.11505 316.575Q523.99005 316.575 523.2713 315.95Q522.55255 315.3094 522.4588 314.2L523.4744 314.2Q523.5838 314.9344 524.0057 315.3094Q524.42755 315.6844 525.11505 315.6844Q525.86505 315.6844 526.30255 315.16876Q526.74005 314.65314 526.74005 313.7469Q526.74005 312.8875 526.2713 312.3719Q525.80255 311.85626 525.0213 311.85626Q524.3182 311.85626 523.9119 312.15314L523.6307 312.3875L522.7557 312.16876Z" fill-rule="nonzero"/><path fill="#757575" d="M578.23126 313.59064L579.41876 313.59064L579.41876 314.46564L578.23126 314.46564L578.23126 316.45L577.15314 316.45L577.15314 314.46564L573.2625 314.46564L573.2625 313.825L577.075 307.91876L578.23126 307.91876L578.23126 313.59064ZM574.4969 313.59064L577.15314 313.59064L577.15314 309.40314L577.0125 309.6375L574.4969 313.59064ZM580.79376 315.8875Q580.79376 315.60626 580.95 315.41876Q581.1219 315.23126 581.45 315.23126Q581.79376 315.23126 581.96564 315.41876Q582.1375 315.60626 582.1375 315.8875Q582.1375 316.15314 581.96564 316.34064Q581.79376 316.5125 581.45 316.5125Q581.1219 316.5125 580.95 316.34064Q580.79376 316.15314 580.79376 315.8875ZM589.0125 312.8094Q589.0125 314.71564 588.35626 315.65314Q587.71564 316.575 586.325 316.575Q584.96564 316.575 584.3094 315.66876Q583.65314 314.7625 583.6219 312.95L583.6219 311.5125Q583.6219 309.6219 584.2625 308.71564Q584.91876 307.79376 586.3094 307.79376Q587.6844 307.79376 588.34064 308.6844Q588.9969 309.5594 589.0125 311.40314L589.0125 312.8094ZM587.91876 311.325Q587.91876 309.95 587.52814 309.325Q587.15314 308.6844 586.3094 308.6844Q585.48126 308.6844 585.09064 309.325Q584.71564 309.95 584.71564 311.2469L584.71564 312.98126Q584.71564 314.35626 585.10626 315.02814Q585.5125 315.6844 586.325 315.6844Q587.1219 315.6844 587.5125 315.0594Q587.90314 314.4344 587.91876 313.10626L587.91876 311.325Z" fill-rule="nonzero"/><path fill="#757575" d="M26.159374 23.33125L28.05 23.33125L28.05 33.39375Q28.05 35.440624 26.815624 36.596874Q25.596874 37.753124 23.55 37.753124Q21.425 37.753124 20.2375 36.675Q19.065624 35.58125 19.065624 33.628124L20.940624 33.628124Q20.940624 34.846874 21.6125 35.534374Q22.284374 36.20625 23.55 36.20625Q24.70625 36.20625 25.425 35.4875Q26.14375 34.753124 26.159374 33.425L26.159374 23.33125ZM44.175 29.596874L36.034374 29.596874L36.034374 28.034374L44.175 28.034374L44.175 29.596874ZM44.175 33.659374L36.034374 33.659374L36.034374 32.096874L44.175 32.096874L44.175 33.659374ZM60.64375 31.4875Q60.64375 34.659374 59.565624 36.20625Q58.4875 37.753124 56.175 37.753124Q53.89375 37.753124 52.8 36.2375Q51.70625 34.721874 51.675 31.721874L51.675 29.315624Q51.675 26.175 52.753124 24.659374Q53.846874 23.128124 56.159374 23.128124Q58.45625 23.128124 59.534374 24.6125Q60.6125 26.08125 60.64375 29.14375L60.64375 31.4875ZM58.846874 29.01875Q58.846874 26.721874 58.190624 25.675Q57.55 24.6125 56.159374 24.6125Q54.76875 24.6125 54.128124 25.659374Q53.503124 26.70625 53.4875 28.878124L53.4875 31.76875Q53.4875 34.065624 54.14375 35.175Q54.815624 36.26875 56.175 36.26875Q57.51875 36.26875 58.159374 35.2375Q58.815624 34.20625 58.846874 31.971874L58.846874 29.01875ZM62.95625 36.596874Q62.95625 36.128124 63.2375 35.815624Q63.51875 35.503124 64.06563 35.503124Q64.62813 35.503124 64.90938 35.815624Q65.20625 36.128124 65.20625 36.596874Q65.20625 37.05 64.90938 37.3625Q64.62813 37.659374 64.06563 37.659374Q63.51875 37.659374 63.2375 37.3625Q62.95625 37.05 62.95625 36.596874ZM76.3625 27.034374Q76.3625 28.1125 75.8 28.940624Q75.2375 29.76875 74.26875 30.2375Q75.39375 30.70625 76.03438 31.628124Q76.69063 32.55 76.69063 33.70625Q76.69063 35.55 75.44063 36.659374Q74.19063 37.753124 72.15938 37.753124Q70.1125 37.753124 68.87813 36.659374Q67.64375 35.55 67.64375 33.70625Q67.64375 32.565624 68.26875 31.64375Q68.90938 30.70625 70.01875 30.221874Q69.06563 29.753124 68.51875 28.925Q67.97188 28.096874 67.97188 27.034374Q67.97188 25.2375 69.12813 24.190624Q70.28438 23.128124 72.15938 23.128124Q74.03438 23.128124 75.19063 24.190624Q76.3625 25.2375 76.3625 27.034374ZM74.87813 33.675Q74.87813 32.4875 74.1125 31.7375Q73.3625 30.971874 72.14375 30.971874Q70.925 30.971874 70.19063 31.721874Q69.45625 32.45625 69.45625 33.675Q69.45625 34.878124 70.175 35.58125Q70.89375 36.26875 72.15938 36.26875Q73.44063 36.26875 74.15938 35.58125Q74.87813 34.878124 74.87813 33.675ZM72.15938 24.6125Q71.09688 24.6125 70.44063 25.284374Q69.78438 25.940624 69.78438 27.065624Q69.78438 28.159374 70.425 28.83125Q71.08125 29.4875 72.15938 29.4875Q73.25313 29.4875 73.89375 28.83125Q74.55 28.159374 74.55 27.08125Q74.55 25.9875 73.87813 25.3Q73.20625 24.6125 72.15938 24.6125ZM86.8625 32.659374L85.7375 33.83125L85.7375 37.55L83.925 37.55L83.925 22.55L85.7375 22.55L85.7375 31.628124L86.70625 30.45625L89.9875 26.9875L92.19063 26.9875L88.08125 31.39375L92.675 37.55L90.55 37.55L86.8625 32.659374ZM107.175 29.596874L99.03438 29.596874L99.03438 28.034374L107.175 28.034374L107.175 29.596874ZM107.175 33.659374L99.03438 33.659374L99.03438 32.096874L107.175 32.096874L107.175 33.659374ZM120.675 37.55L118.84688 37.55L118.84688 25.503124L115.20625 26.846874L115.20625 25.20625L120.39375 23.26875L120.675 23.26875L120.675 37.55ZM125.95625 36.596874Q125.95625 36.128124 126.2375 35.815624Q126.51875 35.503124 127.06563 35.503124Q127.62813 35.503124 127.90938 35.815624Q128.20625 36.128124 128.20625 36.596874Q128.20625 37.05 127.90938 37.3625Q127.62813 37.659374 127.06563 37.659374Q126.51875 37.659374 126.2375 37.3625Q125.95625 37.05 125.95625 36.596874ZM140.05 37.55L130.7375 37.55L130.7375 36.253124L135.65938 30.784374Q136.75313 29.534374 137.15938 28.76875Q137.58125 27.9875 137.58125 27.159374Q137.58125 26.05 136.90938 25.33125Q136.2375 24.6125 135.1125 24.6125Q133.75313 24.6125 133.00313 25.39375Q132.26875 26.159374 132.26875 27.51875L130.45625 27.51875Q130.45625 25.55 131.72188 24.346874Q132.9875 23.128124 135.1125 23.128124Q137.09688 23.128124 138.2375 24.175Q139.39375 25.221874 139.39375 26.940624Q139.39375 29.05 136.72188 31.940624L132.90938 36.08125L140.05 36.08125L140.05 37.55Z" fill-rule="nonzero"/></svg>